<?xml version="1.0" encoding="utf-8"?>
<!-- Generator: Adobe Illustrator 19.2.0, SVG Export Plug-In . SVG Version: 6.00 Build 0)  -->
<svg version="1.1" xmlns="http://www.w3.org/2000/svg" xmlns:xlink="http://www.w3.org/1999/xlink" x="0px" y="0px"
	 viewBox="0 0 2475.9 768.3" style="enable-background:new 0 0 2475.9 768.3;" xml:space="preserve">
<style type="text/css">
	.st0{fill:#223B73;stroke:#FFFFFF;stroke-width:2;stroke-miterlimit:10;}
	.st1{fill:#FFFFFF;stroke:#FFFFFF;stroke-width:2;stroke-miterlimit:10;}
	.st2{fill:#5F5F5F;stroke:#FFFFFF;stroke-width:2;stroke-miterlimit:10;}
	.st3{fill:none;}
	.st4{font-family:'MetaOT-CondBlack';}
	.st5{font-size:230px;}
	.st6{fill:#5F5F61;stroke:#FFFFFF;stroke-miterlimit:10;}
	.st7{font-family:'Corbel-Bold';}
	.st8{font-size:72px;}
	.st9{fill:#223B73;}
	.st10{font-family:'TimesNewRomanPS-BoldItalicMT';}
	.st11{font-size:79px;}
</style>
<g id="Layer_2">
	<path class="st0" d="M305.4,243.2c0,0-52.7,82.6-250.3,36.3c0,0-75.3,301.4,250.3,488.8c0,0,313.1-137.1,253.7-488.8
		C559.1,279.5,403.2,329.9,305.4,243.2z"/>
	<path class="st1" d="M305.4,264.4c0,0-86,76.6-228.1,40.3c0,0-60.1,256,228.1,443.5c0,0,283.9-163.3,230.5-443.5
		C535.9,304.7,438.5,346,305.4,264.4z"/>
	<path class="st2" d="M169,345.6v160.1c0,1.5,1.3,2.8,2.8,2.8h86.4c0.7,0,1.3-0.6,1.3-1.3v-28c0-0.8-0.6-1.4-1.4-1.4h-52.5
		c-0.9,0-1.7-0.8-1.7-1.7V345.6c0-0.7-0.6-1.3-1.3-1.3h-32.4C169.6,344.3,169,344.9,169,345.6z"/>
	<path class="st2" d="M320.1,509H286c-0.6,0-1.1-0.5-1.1-1.1V345.8c0-0.6,0.5-1.1,1.1-1.1h34.1c0.6,0,1.1,0.5,1.1,1.1v162.1
		C321.2,508.5,320.7,509,320.1,509z"/>
	<path class="st0" d="M282.2,127.6c0.9-1.1,1.2-3.9,1.7-5.2c1.8-4.5,4.3-8.8,7.3-12.6c10.3-13.8,26-22.2,42.5-26.2
		c21-5.1,42.1-1.9,63.4-3.1c9.1-0.5,18.3-1.4,27.3-3.4c5.9-1.3,16.5-3.4,20.5-8.6c-13.2,17.6-42.1,23.8-62.2,26.2
		c-19.5,2.3-39.3,1.3-58.3,6.9C308.4,106.2,292.7,114.3,282.2,127.6z"/>
	<path class="st0" d="M414.3,106.5c1.9-0.1,4.2-1.3,6-1.9c5.6-1.6,11.3-3,17-4.3c22.9-4.9,54.9-2.2,71.1-22.4
		c-1.4,1.8-2.1,4.6-3.5,6.6c-3.9,5.5-9.4,9.8-15.3,12.9c-11.1,5.8-24.1,7.7-36.5,8C440.1,105.8,427.3,105.7,414.3,106.5z"/>
	<path class="st0" d="M373.6,47c2.1-5.9,1.6-12.4,4.5-18.4c10.1-20.7,35.9-11.4,51.9-2.1c2.3,1.3,5.2,1.2,7.3-0.4
		c10.9-8.3,44.9-30.5,59.9-0.6c0,0-24.5-25.2-63.2,16.1C434.1,41.6,387.8,7,373.6,47z"/>
	<path class="st0" d="M240.6,205.6h-97.7c-1.5,0-2.7,1.2-2.7,2.7v66.3c0,1.4,1.1,2.6,2.5,2.7c11.2,0.8,57.7,3.3,93.2-7.6
		c0,0,48.4-11.4,69.5-49.4c0,0,23.2,30.6,76.3,47.4c0,0,42.5,16.6,90.5,12.3c1.4-0.1,2.5-1.3,2.5-2.8V208c0-1.5-1.2-2.4-2.7-2.4
		H310.1v-38.3c0,0-27.2-26.9-69.2,0L240.6,205.6z"/>
	<path class="st1" d="M302.6,205.6h-52.2v-34.9c0,0,26-18.4,52.2,0V205.6z"/>
	<path class="st2" d="M406.7,419.6v23.5c0,0.7,0.6,1.3,1.3,1.3h24.8c0.7,0,1.3,0.6,1.3,1.3c0,5.8,0,29.6,0,34.5c0,0.5-0.3,1-0.9,1.1
		c-2,0.5-7.2,1.8-12.6,2c-3.9,0.2-23.6,1.6-33.1-13.1c-6.7-10.4-7.5-23.5-7.6-35.6c-0.1-13.2,0.6-26.5,5-39.1
		c5.7-16.1,21.7-26.6,38.7-23.7c8.6,1.4,16.4,5.9,23.1,11.3c0.3,0.3,0.8,0.3,1.1-0.1c2.6-2.8,14.2-15,16.9-17.8
		c0.4-0.4,0.3-0.9-0.1-1.3c-2.2-1.7-9-6.1-9.6-6.5c-18.9-11.4-42.7-16.5-63.7-7.6c-16.6,7-31.2,21.3-37.9,38
		c-5.4,13.5-7.1,28.2-7.1,42.6c0,11.5,0.9,22.7,4.7,33.7c9.2,26.3,33.8,41.8,60.9,43c19.2,0.8,36-4.5,45.8-9c0.8-0.4,6-3.2,7.5-4.1
		c0.2-0.3,0.3-0.5,0.4-0.7v-73.8c0-0.7-0.6-1.3-1.3-1.3H408C407.3,418.3,406.7,418.9,406.7,419.6z"/>
	<path class="st0" d="M306.8,732.4c-0.1,1.1-0.9,1.2-0.9,0c-0.5-8.7-1-17.4-1.5-26.1c-0.6-11.5-1.2-23.1-1.7-34.6
		c-0.6-12.6-1.1-25.2-1.4-37.9c-0.4-11.9-0.6-23.9-0.6-35.8c0-9.5,0.1-19,0.8-28.5c0.4-5,0.3-11.4,2.7-16c1.4-2.8,3.3-2.2,4.3-0.3
		c0.8,1.5,1.2,3.2,1.6,4.8c0.7,3.2,1.1,6.5,1.5,9.7c0.5,5.4,0.8,10.8,1,16.2c0.3,8.1,0.3,16.2,0.3,24.3c-0.1,11.4-0.4,22.7-0.8,34.1
		c-0.6,15.2-1.3,30.3-2.2,45.5C308.8,702.8,307.8,717.6,306.8,732.4z"/>
</g>
<g id="Layer_3">
	<line class="st3" x1="573.9" y1="305" x2="2481.9" y2="305"/>
	<line class="st3" x1="477" y1="642.5" x2="2477.9" y2="642.5"/>
	<text transform="matrix(1.11 0 0 1 608.3098 504.0014)" class="st0 st4 st5">Marine Managers</text>
</g>
<g id="Layer_4">
	<text transform="matrix(1.1 0 0 1.1 717.3251 610.0005)" class="st6 st7 st8">Commercial Marine and Longshore Insurance</text>
</g>
<g id="Layer_5">
	<text transform="matrix(1.1 0 0 1.1 968.5222 713.2598)" class="st9 st10 st11">So it’s always smooth sailing</text>
</g>
</svg>
