<?xml version="1.0" encoding="utf-8"?>
<!-- Generator: Adobe Illustrator 19.1.0, SVG Export Plug-In . SVG Version: 6.00 Build 0)  -->
<svg version="1.1" xmlns="http://www.w3.org/2000/svg" xmlns:xlink="http://www.w3.org/1999/xlink" x="0px" y="0px"
	 viewBox="0 0 2475.9 768.3" style="enable-background:new 0 0 2475.9 768.3;" xml:space="preserve">
<style type="text/css">
	.st0{fill:#223B73;stroke:#FFFFFF;stroke-width:2;stroke-miterlimit:10;}
	.st1{fill:#FFFFFF;stroke:#FFFFFF;stroke-width:2;stroke-miterlimit:10;}
	.st2{fill:#5F5F61;stroke:#FFFFFF;stroke-width:2;stroke-miterlimit:10;}
	.st3{fill:none;}
	.st4{fill:#5F5F61;stroke:#FFFFFF;stroke-miterlimit:10;}
	.st5{fill:#223B73;}
</style>
<g id="Layer_2">
	<g>
		<path class="st0" d="M305.4,243.2c0,0-52.7,82.6-250.3,36.3c0,0-75.3,301.4,250.3,488.8c0,0,313.1-137.1,253.7-488.8
			C559.1,279.5,403.2,329.9,305.4,243.2z"/>
		<path class="st1" d="M305.4,264.4c0,0-86,76.6-228.1,40.3c0,0-60.1,256,228.1,443.5c0,0,283.9-163.3,230.5-443.5
			C535.9,304.7,438.5,346,305.4,264.4z"/>
		<path class="st2" d="M169,345.6v160.1c0,1.5,1.3,2.8,2.8,2.8h86.4c0.7,0,1.3-0.6,1.3-1.3v-28c0-0.8-0.6-1.4-1.4-1.4h-52.5
			c-0.9,0-1.7-0.8-1.7-1.7V345.6c0-0.7-0.6-1.3-1.3-1.3h-32.4C169.6,344.3,169,344.9,169,345.6z"/>
		<path class="st2" d="M320.1,509H286c-0.6,0-1.1-0.5-1.1-1.1V345.8c0-0.6,0.5-1.1,1.1-1.1h34.1c0.6,0,1.1,0.5,1.1,1.1v162.1
			C321.2,508.5,320.7,509,320.1,509z"/>
		<path class="st0" d="M282.2,127.6c0.9-1.1,1.2-3.9,1.7-5.2c1.8-4.5,4.3-8.8,7.3-12.6c10.3-13.8,26-22.2,42.5-26.2
			c21-5.1,42.1-1.9,63.4-3.1c9.1-0.5,18.3-1.4,27.3-3.4c5.9-1.3,16.5-3.4,20.5-8.6c-13.2,17.6-42.1,23.8-62.2,26.2
			c-19.5,2.3-39.3,1.3-58.3,6.9C308.4,106.2,292.7,114.3,282.2,127.6z"/>
		<path class="st0" d="M414.3,106.5c1.9-0.1,4.2-1.3,6-1.9c5.6-1.6,11.3-3,17-4.3c22.9-4.9,54.9-2.2,71.1-22.4
			c-1.4,1.8-2.1,4.6-3.5,6.6c-3.9,5.5-9.4,9.8-15.3,12.9c-11.1,5.8-24.1,7.7-36.5,8C440.1,105.8,427.3,105.7,414.3,106.5z"/>
		<path class="st0" d="M373.6,47c2.1-5.9,1.6-12.4,4.5-18.4c10.1-20.7,35.9-11.4,51.9-2.1c2.3,1.3,5.2,1.2,7.3-0.4
			c10.9-8.3,44.9-30.5,59.9-0.6c0,0-24.5-25.2-63.2,16.1C434.1,41.6,387.8,7,373.6,47z"/>
		<path class="st0" d="M240.6,205.6h-97.7c-1.5,0-2.7,1.2-2.7,2.7v66.3c0,1.4,1.1,2.6,2.5,2.7c11.2,0.8,57.7,3.3,93.2-7.6
			c0,0,48.4-11.4,69.5-49.4c0,0,23.2,30.6,76.3,47.4c0,0,42.5,16.6,90.5,12.3c1.4-0.1,2.5-1.3,2.5-2.8V208c0-1.5-1.2-2.4-2.7-2.4
			H310.1v-38.3c0,0-27.2-26.9-69.2,0L240.6,205.6z"/>
		<path class="st1" d="M302.6,205.6h-52.2v-34.9c0,0,26-18.4,52.2,0V205.6z"/>
		<path class="st2" d="M394.5,417.9v24.6c0,0.7,0.6,1.3,1.3,1.3h25.9c0.7,0,1.3,0.6,1.3,1.3c0,6,0,30.9,0,36.1c0,0.6-0.4,1-0.9,1.2
			c-2.1,0.6-7.5,1.9-13.2,2.1c-4,0.2-24.7,1.7-34.6-13.7c-7-10.9-7.9-24.6-7.9-37.2c-0.1-13.8,0.6-27.7,5.2-40.9
			c5.9-16.8,22.6-27.7,40.4-24.7c9,1.5,17.1,6.2,24.1,11.9c0.4,0.3,0.9,0.3,1.2-0.1c2.7-2.9,14.8-15.6,17.7-18.6
			c0.4-0.4,0.3-1-0.1-1.3c-2.3-1.8-9.4-6.4-10-6.7c-19.7-12-44.6-17.2-66.5-7.9c-17.3,7.3-32.6,22.2-39.6,39.7
			c-5.6,14.1-7.5,29.5-7.5,44.5c0,12,0.9,23.7,4.9,35.2c9.6,27.4,35.3,43.7,63.6,44.9c20.1,0.8,37.6-4.7,47.8-9.4
			c0.9-0.4,6.2-3.4,7.8-4.2c0.2-0.3,0.3-0.5,0.5-0.8v-77.1c0-0.7-0.6-1.3-1.3-1.3h-58.8C395,416.6,394.5,417.2,394.5,417.9z"/>
		<path class="st0" d="M306.8,732.4c-0.1,1.1-0.9,1.2-0.9,0c-0.5-8.7-1-17.4-1.5-26.1c-0.6-11.5-1.2-23.1-1.7-34.6
			c-0.6-12.6-1.1-25.2-1.4-37.9c-0.4-11.9-0.6-23.9-0.6-35.8c0-9.5,0.1-19,0.8-28.5c0.4-5,0.3-11.4,2.7-16c1.4-2.8,3.3-2.2,4.3-0.3
			c0.8,1.5,1.2,3.2,1.6,4.8c0.7,3.2,1.1,6.5,1.5,9.7c0.5,5.4,0.8,10.8,1,16.2c0.3,8.1,0.3,16.2,0.3,24.3
			c-0.1,11.4-0.4,22.7-0.8,34.1c-0.6,15.2-1.3,30.3-2.2,45.5C308.8,702.8,307.8,717.6,306.8,732.4z"/>
	</g>
</g>
<g id="Layer_3">
	<line class="st3" x1="573.9" y1="305" x2="2481.9" y2="305"/>
	<line class="st3" x1="477" y1="642.5" x2="2477.9" y2="642.5"/>
	<g>
		<path class="st0" d="M793.4,486l-3.1-64.6c-0.4-8.8-1.1-16-1.1-28H789c-1.6,11.8-2.7,18.8-4.4,26.2L767.9,486h-32l-14.2-64.2
			c-1.8-7.8-3.3-15.6-4.4-28H717c0,12.4,0,20-0.4,28.8l-2.9,63.4h-35.5L690,346.6h45.3l13.3,65c1.6,7.8,3.3,15.2,4.4,26.4h0.2
			c1.1-10.6,2.4-17.4,4.4-26l14.4-65.4h44.2L827.4,486H793.4z"/>
		<path class="st0" d="M918,490.2c-4.7-1.6-10.7-7-12.4-10.2c-4.7,4.2-13.3,8.6-25.1,8.6c-24.9,0-34.2-15.2-34.2-33.6
			c0-19.6,16.7-33.6,44.4-33.6c1.3,0,5.3,0.2,5.5,0.2v-7.8c0-2.8-0.2-5.2-1.1-7c-1.1-1.8-3.1-3-7.1-3c-11.1,0-20,4.2-28.6,10.8
			l-12-20.2c12.4-7.8,28.6-14.2,45.1-14.2c18.9,0,32.6,6.6,36.2,18.8c1.3,4.6,1.6,8.4,1.6,16l-0.4,35.6c0,8.6,0.9,15.6,7.8,20.2
			L918,490.2z M896.2,443.4h-1.6c-11.1,0-15.5,4.2-15.5,11c0,6,3.3,9.8,9.1,9.8c3.1,0,6.9-1.8,8-3.4V443.4z"/>
		<path class="st0" d="M1016.5,410.8c-3.6-2-6.2-2.8-10-2.8c-2.9,0-5.1,0.8-6.9,2c-2,1.4-3.6,3.2-4.7,5.4V486h-34v-72.2
			c0-10.4-0.7-17.8-3.1-28l30.9-5.4c1.3,3.6,2.2,8,2.2,12.2c4-5.6,9.8-12.8,20.6-12.8c4.7,0,8.2,1,12.7,3L1016.5,410.8z"/>
		<path class="st0" d="M1056.5,373.2c-10.7,0-19.8-8-19.8-17.6c0-9.6,9.3-17.6,20.4-17.6c10.9,0,19.5,8,19.5,17.6
			C1076.7,365.2,1067.6,373.2,1056.5,373.2z M1039.8,486V384.4l34-3.2V486H1039.8z"/>
		<path class="st0" d="M1158.2,486v-68.6c0-5.2-0.9-8-2.2-9.4c-1.6-1.4-3.6-1.4-5.8-1.4c-3.1,0-6.7,1.2-11.3,5.6V486h-34v-72.2
			c0-10.4-0.7-17.8-3.1-28l30.9-5.4c0.9,2.4,2,5.8,2.2,9c6.4-5,15.5-9.2,28.9-9.2c8.2,0,14.2,1.8,18.4,4.6c7.3,4.8,9.8,13,9.8,21.8
			V486H1158.2z"/>
		<path class="st0" d="M1251.2,443.2c0,5.4,1.3,12.4,5.1,16.6c2.4,2.8,6,4.6,10.9,4.6c8.9,0,16.9-3.4,25.8-10.4l13.8,19.8
			c-13.3,10.6-26,14.8-40.8,14.8c-32,0-49.5-19.4-49.5-53.6c0-19.2,5.1-33.8,14.4-43.2c7.5-7.6,18.2-11.6,31.1-11.6
			c13.8,0,23.8,3.4,30.9,10c10.2,9.4,14.4,25.4,14.4,46.6v6.4H1251.2z M1271.1,406.4c-1.6-3-4.2-4.6-8-4.6c-8,0-11.8,4.2-11.8,19.8
			h22.2C1273.6,414.8,1272.9,409.8,1271.1,406.4z"/>
		<path class="st0" d="M1491.1,486l-3.1-64.6c-0.4-8.8-1.1-16-1.1-28h-0.2c-1.6,11.8-2.7,18.8-4.4,26.2l-16.6,66.4h-32l-14.2-64.2
			c-1.8-7.8-3.3-15.6-4.4-28h-0.2c0,12.4,0,20-0.4,28.8l-2.9,63.4h-35.5l11.8-139.4h45.3l13.3,65c1.6,7.8,3.3,15.2,4.4,26.4h0.2
			c1.1-10.6,2.4-17.4,4.4-26l14.4-65.4h44.2l11.1,139.4H1491.1z"/>
		<path class="st0" d="M1615.7,490.2c-4.7-1.6-10.7-7-12.4-10.2c-4.7,4.2-13.3,8.6-25.1,8.6c-24.9,0-34.2-15.2-34.2-33.6
			c0-19.6,16.7-33.6,44.4-33.6c1.3,0,5.3,0.2,5.5,0.2v-7.8c0-2.8-0.2-5.2-1.1-7c-1.1-1.8-3.1-3-7.1-3c-11.1,0-20,4.2-28.6,10.8
			l-12-20.2c12.4-7.8,28.6-14.2,45.1-14.2c18.9,0,32.6,6.6,36.2,18.8c1.3,4.6,1.6,8.4,1.6,16l-0.4,35.6c0,8.6,0.9,15.6,7.8,20.2
			L1615.7,490.2z M1593.9,443.4h-1.6c-11.1,0-15.5,4.2-15.5,11c0,6,3.3,9.8,9.1,9.8c3.1,0,6.9-1.8,8-3.4V443.4z"/>
		<path class="st0" d="M1712,486v-68.6c0-5.2-0.9-8-2.2-9.4c-1.6-1.4-3.6-1.4-5.8-1.4c-3.1,0-6.7,1.2-11.3,5.6V486h-34v-72.2
			c0-10.4-0.7-17.8-3.1-28l30.9-5.4c0.9,2.4,2,5.8,2.2,9c6.4-5,15.5-9.2,28.9-9.2c8.2,0,14.2,1.8,18.4,4.6c7.3,4.8,9.8,13,9.8,21.8
			V486H1712z"/>
		<path class="st0" d="M1840.8,490.2c-4.7-1.6-10.7-7-12.4-10.2c-4.7,4.2-13.3,8.6-25.1,8.6c-24.9,0-34.2-15.2-34.2-33.6
			c0-19.6,16.7-33.6,44.4-33.6c1.3,0,5.3,0.2,5.5,0.2v-7.8c0-2.8-0.2-5.2-1.1-7c-1.1-1.8-3.1-3-7.1-3c-11.1,0-20,4.2-28.6,10.8
			l-12-20.2c12.4-7.8,28.6-14.2,45.1-14.2c18.9,0,32.6,6.6,36.2,18.8c1.3,4.6,1.6,8.4,1.6,16l-0.4,35.6c0,8.6,0.9,15.6,7.8,20.2
			L1840.8,490.2z M1819,443.4h-1.6c-11.1,0-15.5,4.2-15.5,11c0,6,3.3,9.8,9.1,9.8c3.1,0,6.9-1.8,8-3.4V443.4z"/>
		<path class="st0" d="M1965.6,404.8h-1.3c1.6,1.2,4.7,6.8,4.7,12.8c0,19.8-21.3,31.6-41.1,31.6h-12.2c-0.9,1-2,2.4-2,3.8
			c0,2,3.8,3.2,9.1,3.2h15.5c12,0,21.3,3,27.5,8.2c6,5,9.1,12,9.1,20.8c0,23-16,40-54.2,40c-32.9,0-45.7-12.6-45.7-26.6
			c0-4.4,0.7-9,1.3-12.6h30.4c-0.2,2-0.2,5.8-0.2,7.6c0,6,5.5,8.6,16.7,8.6c11.8,0,18-5,18-11.8c0-7.4-4-9.6-18.4-9.6h-17.5
			c-16.2,0-26-6.8-26-19.8c0-7.2,4.2-15.6,12.4-19.2c-9.8-5.2-14.4-14-14.4-26.2c0-21.8,17.8-35.4,45.5-35.4
			c16.9,0,21.1,3.2,30.2,3.2c7.1,0,13.3-0.8,17.8-4l6.9,22.4C1974.2,403.6,1970.9,404.8,1965.6,404.8z M1922.7,402.4
			c-7.3,0-11.8,4.6-11.8,12.6s4.2,12.8,11.5,12.8c7.5,0,12-4.8,12-12.8S1930,402.4,1922.7,402.4z"/>
		<path class="st0" d="M2023.5,443.2c0,5.4,1.3,12.4,5.1,16.6c2.4,2.8,6,4.6,10.9,4.6c8.9,0,16.9-3.4,25.8-10.4l13.8,19.8
			c-13.3,10.6-26,14.8-40.8,14.8c-32,0-49.5-19.4-49.5-53.6c0-19.2,5.1-33.8,14.4-43.2c7.5-7.6,18.2-11.6,31.1-11.6
			c13.8,0,23.8,3.4,30.9,10c10.2,9.4,14.4,25.4,14.4,46.6v6.4H2023.5z M2043.5,406.4c-1.6-3-4.2-4.6-8-4.6c-8,0-11.8,4.2-11.8,19.8
			h22.2C2045.9,414.8,2045.3,409.8,2043.5,406.4z"/>
		<path class="st0" d="M2157.1,410.8c-3.6-2-6.2-2.8-10-2.8c-2.9,0-5.1,0.8-6.9,2c-2,1.4-3.6,3.2-4.7,5.4V486h-34v-72.2
			c0-10.4-0.7-17.8-3.1-28l30.9-5.4c1.3,3.6,2.2,8,2.2,12.2c4-5.6,9.8-12.8,20.6-12.8c4.7,0,8.2,1,12.7,3L2157.1,410.8z"/>
		<path class="st0" d="M2212.9,488.6c-13.5,0-27.5-4.2-41.3-12.4l10.9-22.8c7.8,5.6,21.5,12,31.1,12c5.8,0,10.4-4,10.4-7.8
			c0-6-5.8-9-13.3-11.4l-2-0.6c-15.3-4.6-32-9.4-32-30.2c0-21.2,15.3-35.2,39.3-35.2c16.7,0,26.4,3.2,37.3,9l-10,21
			c-7.8-4.4-14.9-7-22.6-7c-5.1,0-8.4,2.4-8.4,5.8c0,7,7.8,9.4,16.6,12.2l2,0.6c12.4,4,26.4,9.6,26.4,30
			C2257.3,474.2,2239.3,488.6,2212.9,488.6z"/>
	</g>
</g>
<g id="Layer_4">
	<g>
		<path class="st4" d="M609.3,554.9c-2.8,0-5.4,0.5-7.8,1.4s-4.4,2.3-6.2,4.1c-1.7,1.8-3,4-4,6.6c-1,2.6-1.4,5.6-1.4,9
			c0,3.3,0.4,6.3,1.3,8.8c0.9,2.5,2.1,4.6,3.8,6.3c1.6,1.7,3.6,3,6,3.8c2.4,0.9,5,1.3,8,1.3c2.1,0,4.3-0.2,6.6-0.5
			c2.2-0.3,4.3-0.8,6.3-1.5v9c-2,0.6-4.1,1-6.4,1.3s-4.7,0.5-7.1,0.5c-4.8,0-9-0.7-12.7-2.1s-6.7-3.3-9.1-5.8
			c-2.4-2.5-4.3-5.5-5.5-9s-1.8-7.3-1.8-11.6c0-4.3,0.7-8.3,2-12.1s3.2-6.9,5.7-9.6c2.5-2.7,5.6-4.9,9.3-6.4s7.9-2.3,12.6-2.4
			c2.4,0,4.7,0.2,6.8,0.5c2.1,0.3,4.1,0.8,5.8,1.4v8.8c-2.3-0.7-4.4-1.2-6.3-1.5C613.1,555.1,611.2,554.9,609.3,554.9z"/>
		<path class="st4" d="M670.4,583.5c0,3.2-0.5,6.2-1.4,8.8c-1,2.7-2.3,4.9-4.1,6.8c-1.8,1.9-4,3.4-6.5,4.4c-2.5,1-5.4,1.5-8.5,1.5
			c-3.2,0-6.1-0.5-8.7-1.5c-2.6-1-4.7-2.5-6.5-4.4c-1.8-1.9-3.1-4.2-4.1-6.8c-0.9-2.7-1.4-5.6-1.4-8.8s0.5-6.2,1.4-8.8
			c1-2.7,2.3-4.9,4.1-6.8c1.8-1.9,4-3.4,6.5-4.4c2.5-1,5.4-1.5,8.5-1.5c3.2,0,6.1,0.5,8.7,1.5c2.6,1,4.7,2.5,6.5,4.4
			c1.8,1.9,3.1,4.2,4.1,6.8C670,577.3,670.4,580.2,670.4,583.5z M660,583.5c0-2.2-0.3-4.1-0.8-5.8s-1.2-3.1-2.1-4.2
			c-0.9-1.1-2-2-3.3-2.5c-1.3-0.6-2.7-0.8-4.2-0.8c-1.5,0-2.8,0.3-4.1,0.8c-1.3,0.6-2.3,1.4-3.2,2.5c-0.9,1.1-1.6,2.5-2.1,4.2
			c-0.5,1.7-0.8,3.6-0.8,5.8c0,2.2,0.3,4.1,0.8,5.8c0.5,1.7,1.2,3.1,2.1,4.2c0.9,1.1,2,2,3.3,2.5c1.3,0.6,2.6,0.9,4.1,0.9
			c1.5,0,2.9-0.3,4.1-0.9c1.2-0.6,2.3-1.4,3.2-2.5c0.9-1.1,1.6-2.5,2.1-4.2C659.8,587.6,660,585.6,660,583.5z"/>
		<path class="st4" d="M732.3,579c0-0.9,0-1.7-0.1-2.5s-0.2-1.4-0.3-2c-0.3-1.2-0.9-2.2-1.8-3c-0.9-0.8-2.2-1.2-3.8-1.2
			c-0.9,0-1.8,0.1-2.7,0.4c-0.9,0.3-1.9,0.6-2.8,1.1s-1.8,1-2.6,1.7c-0.8,0.7-1.6,1.4-2.3,2.2V604h-10.1v-25c0-0.9,0-1.7-0.1-2.5
			s-0.2-1.4-0.3-2c-0.3-1.2-0.9-2.2-1.8-3c-0.9-0.8-2.2-1.2-3.8-1.2c-0.9,0-1.8,0.1-2.7,0.4c-0.9,0.3-1.9,0.6-2.8,1.1
			c-0.9,0.5-1.8,1-2.6,1.7c-0.8,0.7-1.6,1.4-2.3,2.2V604h-10.1v-41.1h8.3l0.9,5.7h0.2c0.6-0.8,1.3-1.7,2.2-2.5
			c0.9-0.8,1.9-1.5,3.1-2.2c1.1-0.6,2.4-1.1,3.8-1.5c1.4-0.4,2.8-0.6,4.3-0.6c2.7,0,5.2,0.6,7.3,1.8s3.8,3.1,4.9,5.6h0.2
			c0.8-1.1,1.7-2.1,2.7-3c1-0.9,2.1-1.7,3.2-2.3c1.2-0.7,2.5-1.2,3.8-1.5c1.4-0.4,2.8-0.6,4.4-0.6c2.9,0,5.4,0.6,7.4,1.8
			c2,1.2,3.5,2.9,4.6,4.9c0.3,0.5,0.5,1.1,0.7,1.8c0.2,0.6,0.4,1.4,0.5,2.1c0.1,0.8,0.2,1.7,0.3,2.6c0.1,1,0.1,2.1,0.1,3.3V604
			h-10.1V579z"/>
		<path class="st4" d="M806.4,579c0-0.9,0-1.7-0.1-2.5s-0.2-1.4-0.3-2c-0.3-1.2-0.9-2.2-1.8-3c-0.9-0.8-2.2-1.2-3.8-1.2
			c-0.9,0-1.8,0.1-2.7,0.4c-0.9,0.3-1.9,0.6-2.8,1.1s-1.8,1-2.6,1.7c-0.8,0.7-1.6,1.4-2.3,2.2V604h-10.1v-25c0-0.9,0-1.7-0.1-2.5
			s-0.2-1.4-0.3-2c-0.3-1.2-0.9-2.2-1.8-3c-0.9-0.8-2.2-1.2-3.8-1.2c-0.9,0-1.8,0.1-2.7,0.4c-0.9,0.3-1.9,0.6-2.8,1.1
			c-0.9,0.5-1.8,1-2.6,1.7c-0.8,0.7-1.6,1.4-2.3,2.2V604h-10.1v-41.1h8.3l0.9,5.7h0.2c0.6-0.8,1.3-1.7,2.2-2.5
			c0.9-0.8,1.9-1.5,3.1-2.2c1.1-0.6,2.4-1.1,3.8-1.5c1.4-0.4,2.8-0.6,4.3-0.6c2.7,0,5.2,0.6,7.3,1.8s3.8,3.1,4.9,5.6h0.2
			c0.8-1.1,1.7-2.1,2.7-3c1-0.9,2.1-1.7,3.2-2.3c1.2-0.7,2.5-1.2,3.8-1.5c1.4-0.4,2.8-0.6,4.4-0.6c2.9,0,5.4,0.6,7.4,1.8
			c2,1.2,3.5,2.9,4.6,4.9c0.3,0.5,0.5,1.1,0.7,1.8c0.2,0.6,0.4,1.4,0.5,2.1c0.1,0.8,0.2,1.7,0.3,2.6c0.1,1,0.1,2.1,0.1,3.3V604
			h-10.1V579z"/>
		<path class="st4" d="M848.6,597c2,0,4-0.2,6.1-0.6c2.1-0.4,4.3-1,6.4-1.7v8c-1.3,0.6-3.3,1.1-6,1.6c-2.7,0.5-5.5,0.8-8.4,0.8
			c-2.9,0-5.7-0.4-8.3-1.1c-2.6-0.7-4.9-2-6.9-3.6c-2-1.7-3.5-3.8-4.6-6.5c-1.1-2.7-1.7-5.9-1.7-9.7c0-3.7,0.5-7,1.6-9.8
			c1.1-2.8,2.5-5.1,4.3-7c1.8-1.8,3.9-3.2,6.2-4.1c2.3-0.9,4.7-1.4,7.2-1.4c2.6,0,5,0.4,7.2,1.2s4.1,2,5.7,3.7
			c1.6,1.7,2.8,3.9,3.7,6.6c0.9,2.7,1.3,5.8,1.3,9.5c0,1.4-0.1,2.6-0.1,3.6h-26.9c0.1,1.9,0.6,3.5,1.3,4.9c0.7,1.3,1.6,2.4,2.8,3.3
			c1.1,0.8,2.5,1.4,4,1.8C845.2,596.8,846.8,597,848.6,597z M844.6,569.7c-1.3,0-2.4,0.2-3.4,0.7s-1.8,1.1-2.6,1.9
			c-0.7,0.8-1.3,1.7-1.7,2.8c-0.4,1.1-0.7,2.2-0.8,3.4h16.2c0-1.2-0.2-2.4-0.5-3.4c-0.3-1.1-0.8-2-1.4-2.8c-0.6-0.8-1.4-1.4-2.4-1.9
			C847,569.9,845.9,569.7,844.6,569.7z"/>
		<path class="st4" d="M896.4,570.9h-0.8c-3.1,0-5.8,0.5-8.1,1.4s-4.1,2.3-5.4,4.2V604H872v-41.1h8.3l0.9,5.7h0.2
			c1.2-2.1,2.8-3.7,4.9-4.9s4.6-1.8,7.5-1.8c1,0,1.9,0.1,2.6,0.2V570.9z"/>
		<path class="st4" d="M932,603.1c-1.3,0.5-2.8,1-4.7,1.4c-1.8,0.4-3.8,0.6-5.8,0.6c-3,0-5.7-0.4-8.3-1.3s-4.8-2.1-6.7-3.9
			c-1.9-1.7-3.4-3.9-4.5-6.6c-1.1-2.6-1.7-5.7-1.7-9.3c0-4,0.6-7.4,1.9-10.2c1.3-2.8,2.9-5.1,4.9-6.9s4.3-3.1,6.8-3.9
			c2.5-0.8,5-1.3,7.5-1.3c1.8,0,3.6,0.2,5.3,0.5s3.2,0.8,4.6,1.3v8.2c-1.2-0.5-2.6-1-4-1.3s-2.9-0.5-4.5-0.5s-3.2,0.2-4.6,0.7
			c-1.5,0.5-2.8,1.3-3.9,2.4c-1.1,1.1-2,2.5-2.7,4.3s-1,3.9-1,6.4c0,1.8,0.3,3.5,0.8,5.1c0.5,1.6,1.3,3,2.2,4.1c1,1.1,2.2,2,3.7,2.7
			c1.5,0.7,3.3,1,5.4,1c1.8,0,3.5-0.2,5-0.6c1.5-0.4,2.9-0.8,4.2-1.4V603.1z"/>
		<path class="st4" d="M940.7,542.6h10.6v10.9h-10.6V542.6z M940.9,562.9H951V604h-10.1V562.9z"/>
		<path class="st4" d="M986.5,599.6h-0.2c-0.6,0.6-1.2,1.2-2,1.8c-0.8,0.6-1.7,1.2-2.7,1.8c-1,0.6-2.2,1-3.4,1.3
			c-1.2,0.3-2.6,0.5-4,0.5c-2,0-3.8-0.3-5.5-0.9s-3.2-1.5-4.4-2.6c-1.2-1.1-2.2-2.5-2.9-4.2c-0.7-1.6-1-3.4-1-5.5
			c0-2.2,0.4-4.2,1.2-5.9c0.8-1.8,1.9-3.2,3.4-4.5s3.2-2.1,5.2-2.8c2-0.6,4.2-1,6.7-1c1.8,0,3.4,0.1,4.9,0.3
			c1.5,0.2,2.8,0.5,3.9,0.8v-1.7c0-1-0.2-1.9-0.5-2.8c-0.3-0.9-0.8-1.7-1.6-2.4s-1.7-1.2-2.8-1.7c-1.2-0.4-2.6-0.6-4.2-0.6
			c-2,0-4.1,0.2-6.1,0.7c-2,0.5-4.2,1.1-6.6,2v-7.8c2.1-0.9,4.3-1.6,6.6-2.1c2.3-0.5,4.8-0.7,7.3-0.8c3,0,5.6,0.4,7.9,1.1
			c2.2,0.7,4.1,1.7,5.6,3c1.5,1.3,2.6,2.8,3.4,4.6c0.7,1.8,1.1,3.7,1.1,5.7v15.5c0,2.7,0,5,0.1,7c0.1,2,0.1,3.7,0.2,5.2h-9.1
			L986.5,599.6z M985.7,586.5c-1-0.2-2.1-0.4-3.3-0.6c-1.2-0.2-2.5-0.3-3.8-0.3c-2.5,0-4.4,0.5-5.8,1.5c-1.4,1-2.1,2.5-2.1,4.5
			c0,0.9,0.2,1.7,0.5,2.4s0.8,1.3,1.3,1.7c0.6,0.5,1.2,0.8,1.9,1c0.7,0.2,1.5,0.3,2.3,0.3c1,0,2-0.1,2.9-0.4c0.9-0.3,1.7-0.6,2.5-1
			c0.8-0.4,1.4-0.9,2.1-1.4c0.6-0.5,1.1-1,1.5-1.5V586.5z"/>
		<path class="st4" d="M1007.4,604v-61.4h10.1V604H1007.4z"/>
		<path class="st4" d="M1077.3,588.8c1.2-4.5,2.8-9.3,4.6-14.4l9.8-27.2h14.6V604h-10.4v-28.8c0-4.2,0.2-9.1,0.5-14.7h-0.4
			c-0.5,1.6-1,3.4-1.7,5.4c-0.7,2-1.3,4-2,5.9l-11.8,32.1h-6.7l-11.8-32.1c-0.7-2-1.4-3.9-2-5.9c-0.7-2-1.2-3.8-1.7-5.4h-0.4
			c0.3,5.2,0.5,10.1,0.5,14.6V604h-10.4v-56.8h14.5l9.8,27c1.6,4.5,3.2,9.3,4.6,14.5H1077.3z"/>
		<path class="st4" d="M1142.8,599.6h-0.2c-0.6,0.6-1.2,1.2-2,1.8c-0.8,0.6-1.7,1.2-2.7,1.8c-1,0.6-2.2,1-3.4,1.3
			c-1.2,0.3-2.6,0.5-4,0.5c-2,0-3.8-0.3-5.5-0.9s-3.2-1.5-4.4-2.6c-1.2-1.1-2.2-2.5-2.9-4.2c-0.7-1.6-1-3.4-1-5.5
			c0-2.2,0.4-4.2,1.2-5.9c0.8-1.8,1.9-3.2,3.4-4.5s3.2-2.1,5.2-2.8c2-0.6,4.2-1,6.7-1c1.8,0,3.4,0.1,4.9,0.3
			c1.5,0.2,2.8,0.5,3.9,0.8v-1.7c0-1-0.2-1.9-0.5-2.8c-0.3-0.9-0.8-1.7-1.6-2.4s-1.7-1.2-2.8-1.7c-1.2-0.4-2.6-0.6-4.2-0.6
			c-2,0-4.1,0.2-6.1,0.7c-2,0.5-4.2,1.1-6.6,2v-7.8c2.1-0.9,4.3-1.6,6.6-2.1c2.3-0.5,4.8-0.7,7.3-0.8c3,0,5.6,0.4,7.9,1.1
			c2.2,0.7,4.1,1.7,5.6,3c1.5,1.3,2.6,2.8,3.4,4.6c0.7,1.8,1.1,3.7,1.1,5.7v15.5c0,2.7,0,5,0.1,7c0.1,2,0.1,3.7,0.2,5.2h-9.1
			L1142.8,599.6z M1142,586.5c-1-0.2-2.1-0.4-3.3-0.6c-1.2-0.2-2.5-0.3-3.8-0.3c-2.5,0-4.4,0.5-5.8,1.5c-1.4,1-2.1,2.5-2.1,4.5
			c0,0.9,0.2,1.7,0.5,2.4s0.8,1.3,1.3,1.7c0.6,0.5,1.2,0.8,1.9,1c0.7,0.2,1.5,0.3,2.3,0.3c1,0,2-0.1,2.9-0.4c0.9-0.3,1.7-0.6,2.5-1
			c0.8-0.4,1.4-0.9,2.1-1.4c0.6-0.5,1.1-1,1.5-1.5V586.5z"/>
		<path class="st4" d="M1187.8,570.9h-0.8c-3.1,0-5.8,0.5-8.1,1.4s-4.1,2.3-5.4,4.2V604h-10.1v-41.1h8.3l0.9,5.7h0.2
			c1.2-2.1,2.8-3.7,4.9-4.9s4.6-1.8,7.5-1.8c1,0,1.9,0.1,2.6,0.2V570.9z"/>
		<path class="st4" d="M1193.8,542.6h10.6v10.9h-10.6V542.6z M1194,562.9h10.1V604H1194V562.9z"/>
		<path class="st4" d="M1224.6,568.6h0.2c0.6-0.8,1.3-1.7,2.2-2.5c0.9-0.8,1.9-1.5,3.1-2.2s2.4-1.1,3.8-1.5c1.4-0.4,2.9-0.6,4.5-0.6
			c1.5,0,2.9,0.2,4.3,0.5c1.4,0.3,2.7,0.9,3.8,1.6s2.2,1.7,3.1,2.8c0.9,1.1,1.6,2.5,2.1,4.1c0.3,0.9,0.5,1.8,0.6,2.9
			c0.1,1,0.1,2.2,0.1,3.6V604h-10.1v-25.1c0-1.1,0-2.1-0.1-2.8c-0.1-0.8-0.2-1.5-0.5-2.1c-0.5-1.3-1.3-2.2-2.3-2.8
			c-1-0.6-2.3-0.8-3.8-0.8c-2,0-3.8,0.5-5.6,1.4c-1.8,0.9-3.4,2.3-4.8,4V604h-10.1v-41.1h8.3L1224.6,568.6z"/>
		<path class="st4" d="M1284.7,597c2,0,4-0.2,6.1-0.6c2.1-0.4,4.3-1,6.4-1.7v8c-1.3,0.6-3.3,1.1-6,1.6c-2.7,0.5-5.5,0.8-8.4,0.8
			c-2.9,0-5.7-0.4-8.3-1.1c-2.6-0.7-4.9-2-6.9-3.6c-2-1.7-3.5-3.8-4.6-6.5c-1.1-2.7-1.7-5.9-1.7-9.7c0-3.7,0.5-7,1.6-9.8
			c1.1-2.8,2.5-5.1,4.3-7c1.8-1.8,3.9-3.2,6.2-4.1c2.3-0.9,4.7-1.4,7.2-1.4c2.6,0,5,0.4,7.2,1.2s4.1,2,5.7,3.7
			c1.6,1.7,2.8,3.9,3.7,6.6c0.9,2.7,1.3,5.8,1.3,9.5c0,1.4-0.1,2.6-0.1,3.6h-26.9c0.1,1.9,0.6,3.5,1.3,4.9c0.7,1.3,1.6,2.4,2.8,3.3
			c1.1,0.8,2.5,1.4,4,1.8C1281.3,596.8,1282.9,597,1284.7,597z M1280.7,569.7c-1.3,0-2.4,0.2-3.4,0.7s-1.8,1.1-2.6,1.9
			c-0.7,0.8-1.3,1.7-1.7,2.8c-0.4,1.1-0.7,2.2-0.8,3.4h16.2c0-1.2-0.2-2.4-0.5-3.4c-0.3-1.1-0.8-2-1.4-2.8c-0.6-0.8-1.4-1.4-2.4-1.9
			C1283.1,569.9,1282,569.7,1280.7,569.7z"/>
		<path class="st4" d="M1350.2,599.6h-0.2c-0.6,0.6-1.2,1.2-2,1.8c-0.8,0.6-1.7,1.2-2.7,1.8c-1,0.6-2.2,1-3.4,1.3
			c-1.2,0.3-2.6,0.5-4,0.5c-2,0-3.8-0.3-5.5-0.9s-3.2-1.5-4.4-2.6c-1.2-1.1-2.2-2.5-2.9-4.2c-0.7-1.6-1-3.4-1-5.5
			c0-2.2,0.4-4.2,1.2-5.9c0.8-1.8,1.9-3.2,3.4-4.5s3.2-2.1,5.2-2.8c2-0.6,4.2-1,6.7-1c1.8,0,3.4,0.1,4.9,0.3
			c1.5,0.2,2.8,0.5,3.9,0.8v-1.7c0-1-0.2-1.9-0.5-2.8c-0.3-0.9-0.8-1.7-1.6-2.4s-1.7-1.2-2.8-1.7c-1.2-0.4-2.6-0.6-4.2-0.6
			c-2,0-4.1,0.2-6.1,0.7c-2,0.5-4.2,1.1-6.6,2v-7.8c2.1-0.9,4.3-1.6,6.6-2.1c2.3-0.5,4.8-0.7,7.3-0.8c3,0,5.6,0.4,7.9,1.1
			c2.2,0.7,4.1,1.7,5.6,3c1.5,1.3,2.6,2.8,3.4,4.6c0.7,1.8,1.1,3.7,1.1,5.7v15.5c0,2.7,0,5,0.1,7c0.1,2,0.1,3.7,0.2,5.2h-9.1
			L1350.2,599.6z M1349.4,586.5c-1-0.2-2.1-0.4-3.3-0.6c-1.2-0.2-2.5-0.3-3.8-0.3c-2.5,0-4.4,0.5-5.8,1.5c-1.4,1-2.1,2.5-2.1,4.5
			c0,0.9,0.2,1.7,0.5,2.4s0.8,1.3,1.3,1.7c0.6,0.5,1.2,0.8,1.9,1c0.7,0.2,1.5,0.3,2.3,0.3c1,0,2-0.1,2.9-0.4c0.9-0.3,1.7-0.6,2.5-1
			c0.8-0.4,1.4-0.9,2.1-1.4c0.6-0.5,1.1-1,1.5-1.5V586.5z"/>
		<path class="st4" d="M1380,568.6h0.2c0.6-0.8,1.3-1.7,2.2-2.5c0.9-0.8,1.9-1.5,3.1-2.2s2.4-1.1,3.8-1.5c1.4-0.4,2.9-0.6,4.5-0.6
			c1.5,0,2.9,0.2,4.3,0.5c1.4,0.3,2.7,0.9,3.8,1.6s2.2,1.7,3.1,2.8c0.9,1.1,1.6,2.5,2.1,4.1c0.3,0.9,0.5,1.8,0.6,2.9
			c0.1,1,0.1,2.2,0.1,3.6V604h-10.1v-25.1c0-1.1,0-2.1-0.1-2.8c-0.1-0.8-0.2-1.5-0.5-2.1c-0.5-1.3-1.3-2.2-2.3-2.8
			c-1-0.6-2.3-0.8-3.8-0.8c-2,0-3.8,0.5-5.6,1.4c-1.8,0.9-3.4,2.3-4.8,4V604h-10.1v-41.1h8.3L1380,568.6z"/>
		<path class="st4" d="M1416.8,584.3c0-3.6,0.5-6.8,1.5-9.6c1-2.8,2.3-5.2,4.1-7.1c1.7-1.9,3.7-3.3,5.9-4.3s4.5-1.4,6.9-1.4
			c1.1,0,2.1,0.1,3.1,0.3c1,0.2,1.9,0.5,2.8,0.8c0.9,0.3,1.7,0.7,2.5,1.1s1.5,0.9,2.1,1.3h0.1c0-0.6,0-1.4-0.1-2.4c0-1,0-2.2,0-3.4
			v-17.1h10.1v49.2c0,2.7,0,5,0.1,7c0.1,2,0.1,3.7,0.2,5.2h-9.1l-0.4-4.4h-0.2c-0.6,0.7-1.3,1.4-2.1,2.1c-0.8,0.7-1.8,1.3-2.8,1.8
			c-1,0.5-2.1,0.9-3.3,1.2c-1.2,0.3-2.5,0.4-3.9,0.4c-2.2,0-4.4-0.4-6.4-1.2c-2.1-0.8-3.9-2-5.5-3.7s-2.9-3.8-3.9-6.5
			C1417.3,591,1416.8,587.9,1416.8,584.3z M1436.6,597c1,0,1.9-0.1,2.8-0.4c0.9-0.3,1.7-0.6,2.5-1c0.8-0.4,1.5-0.9,2.1-1.4
			c0.6-0.5,1.1-1,1.5-1.5v-19.5c-1.2-1-2.5-1.8-4-2.4s-3-1-4.7-1c-1,0-2.1,0.2-3.3,0.6c-1.1,0.4-2.2,1.1-3.1,2.2
			c-0.9,1-1.7,2.4-2.4,4.2c-0.6,1.8-1,4.1-1,6.9c0,4.1,0.8,7.4,2.4,9.7C1431.2,595.8,1433.5,597,1436.6,597z"/>
		<path class="st4" d="M1497,547.2v48.1h26.6v8.7h-37v-56.8H1497z"/>
		<path class="st4" d="M1571.2,583.5c0,3.2-0.5,6.2-1.4,8.8c-1,2.7-2.3,4.9-4.1,6.8c-1.8,1.9-4,3.4-6.5,4.4c-2.5,1-5.4,1.5-8.5,1.5
			c-3.2,0-6.1-0.5-8.7-1.5c-2.6-1-4.7-2.5-6.5-4.4c-1.8-1.9-3.1-4.2-4.1-6.8c-0.9-2.7-1.4-5.6-1.4-8.8s0.5-6.2,1.4-8.8
			c1-2.7,2.3-4.9,4.1-6.8c1.8-1.9,4-3.4,6.5-4.4c2.5-1,5.4-1.5,8.5-1.5c3.2,0,6.1,0.5,8.7,1.5c2.6,1,4.7,2.5,6.5,4.4
			c1.8,1.9,3.1,4.2,4.1,6.8C1570.8,577.3,1571.2,580.2,1571.2,583.5z M1560.8,583.5c0-2.2-0.3-4.1-0.8-5.8s-1.2-3.1-2.1-4.2
			c-0.9-1.1-2-2-3.3-2.5c-1.3-0.6-2.7-0.8-4.2-0.8c-1.5,0-2.8,0.3-4.1,0.8c-1.3,0.6-2.3,1.4-3.2,2.5c-0.9,1.1-1.6,2.5-2.1,4.2
			c-0.5,1.7-0.8,3.6-0.8,5.8c0,2.2,0.3,4.1,0.8,5.8c0.5,1.7,1.2,3.1,2.1,4.2c0.9,1.1,2,2,3.3,2.5c1.3,0.6,2.6,0.9,4.1,0.9
			c1.5,0,2.9-0.3,4.1-0.9c1.2-0.6,2.3-1.4,3.2-2.5c0.9-1.1,1.6-2.5,2.1-4.2C1560.6,587.6,1560.8,585.6,1560.8,583.5z"/>
		<path class="st4" d="M1589.4,568.6h0.2c0.6-0.8,1.3-1.7,2.2-2.5c0.9-0.8,1.9-1.5,3.1-2.2s2.4-1.1,3.8-1.5c1.4-0.4,2.9-0.6,4.5-0.6
			c1.5,0,2.9,0.2,4.3,0.5c1.4,0.3,2.7,0.9,3.8,1.6s2.2,1.7,3.1,2.8c0.9,1.1,1.6,2.5,2.1,4.1c0.3,0.9,0.5,1.8,0.6,2.9
			c0.1,1,0.1,2.2,0.1,3.6V604h-10.1v-25.1c0-1.1,0-2.1-0.1-2.8c-0.1-0.8-0.2-1.5-0.5-2.1c-0.5-1.3-1.3-2.2-2.3-2.8
			c-1-0.6-2.3-0.8-3.8-0.8c-2,0-3.8,0.5-5.6,1.4c-1.8,0.9-3.4,2.3-4.8,4V604h-10.1v-41.1h8.3L1589.4,568.6z"/>
		<path class="st4" d="M1655,605.1c0-0.6,0-1.3,0-2.1s0-1.5,0.1-2.1h-0.1c-0.6,0.5-1.3,1-2.1,1.5c-0.8,0.5-1.7,0.9-2.7,1.4
			c-1,0.4-2,0.7-3.2,1c-1.2,0.2-2.3,0.4-3.6,0.4c-2.2,0-4.3-0.4-6.4-1.2c-2.1-0.8-3.9-2-5.5-3.7c-1.6-1.7-2.9-3.8-3.9-6.5
			c-1-2.6-1.5-5.8-1.5-9.5c0-3.7,0.5-7,1.5-9.7c1-2.8,2.3-5.1,4-7s3.6-3.3,5.8-4.2s4.4-1.4,6.7-1.4c2.5,0,4.8,0.5,6.7,1.6
			c2,1.1,3.5,2.4,4.8,4.1h0.2l0.4-4.6h8.8v41.9c0,2.4-0.2,4.5-0.6,6.2c-0.4,1.7-1,3.3-1.7,4.6c-0.9,1.6-2.1,2.9-3.5,4.1
			c-1.4,1.2-3,2.1-4.8,2.9c-1.8,0.8-3.8,1.3-5.9,1.7c-2.2,0.4-4.4,0.6-6.8,0.6c-1.4,0-2.7,0-4-0.1s-2.5-0.2-3.7-0.4
			c-1.1-0.2-2.2-0.4-3.1-0.6c-0.9-0.2-1.7-0.5-2.4-0.7v-8.2c1.9,0.6,3.8,1.1,5.9,1.4c2,0.3,4.2,0.5,6.5,0.5c4.5,0,8-0.9,10.4-2.6
			s3.7-4.4,3.7-7.9V605.1z M1646,597c1,0,2-0.1,2.9-0.4c0.9-0.3,1.7-0.6,2.5-1s1.4-0.8,2.1-1.3c0.6-0.5,1.1-1,1.5-1.4v-18.4
			c-1.1-1.3-2.4-2.3-4-3.2s-3.3-1.3-5-1.3c-0.6,0-1.3,0.1-2,0.2s-1.4,0.4-2.1,0.8c-0.7,0.4-1.4,0.9-2,1.6c-0.6,0.7-1.2,1.5-1.7,2.5
			s-0.9,2.2-1.2,3.6c-0.3,1.4-0.4,3.1-0.4,4.9c0,2.1,0.2,3.9,0.6,5.5c0.4,1.6,1,3,1.8,4.2c0.8,1.1,1.8,2,2.9,2.6
			C1643.1,596.7,1644.5,597,1646,597z"/>
		<path class="st4" d="M1694.3,592.1c0-0.9-0.2-1.6-0.7-2.2c-0.5-0.6-1.2-1-2-1.4c-0.8-0.4-1.8-0.7-2.8-1c-1.1-0.3-2.2-0.6-3.3-0.8
			c-1.5-0.4-2.9-0.9-4.2-1.4c-1.4-0.5-2.6-1.2-3.6-2.1c-1-0.8-1.9-1.9-2.5-3.2c-0.6-1.3-0.9-2.9-0.9-4.7c0-2.3,0.4-4.3,1.2-6
			c0.8-1.7,1.9-3.1,3.3-4.2c1.4-1.1,3-1.9,4.9-2.5s3.8-0.8,5.9-0.8c2.5,0,4.9,0.2,7.1,0.6c2.2,0.4,4.2,0.9,6,1.6v8.2
			c-0.9-0.3-1.9-0.6-2.9-0.9c-1-0.3-2.1-0.5-3.1-0.7c-1.1-0.2-2.1-0.4-3.2-0.5c-1-0.1-2-0.2-3-0.2c-1.2,0-2.2,0.1-3,0.3
			s-1.5,0.5-2,0.9c-0.5,0.4-0.9,0.8-1.1,1.3c-0.2,0.5-0.3,1-0.3,1.5c0,0.9,0.2,1.7,0.7,2.3c0.5,0.6,1.2,1.1,2.1,1.4s1.8,0.7,2.8,0.9
			c1,0.2,1.9,0.5,2.8,0.7c1.4,0.3,2.8,0.8,4.2,1.2c1.4,0.5,2.7,1.2,3.8,2c1.1,0.9,2.1,2,2.8,3.4c0.7,1.4,1.1,3.1,1.1,5.2
			c0,2.3-0.4,4.3-1.3,6.1c-0.9,1.7-2.1,3.2-3.7,4.3c-1.6,1.1-3.5,2-5.6,2.5c-2.2,0.6-4.6,0.8-7.2,0.8c-2.6,0-4.9-0.2-7-0.6
			s-3.8-0.9-5.2-1.5v-8.1c2.2,0.8,4.2,1.4,6.1,1.7s3.6,0.4,5.2,0.4c1.2,0,2.4-0.1,3.5-0.3s2-0.5,2.8-0.9c0.8-0.4,1.4-0.9,1.8-1.5
			C1694.1,593.7,1694.3,592.9,1694.3,592.1z"/>
		<path class="st4" d="M1723.4,559.3c0,2.1,0,3.9-0.1,5.2c-0.1,1.4-0.2,2.6-0.4,3.7h0.2c0.6-0.8,1.3-1.6,2.2-2.4
			c0.9-0.8,1.8-1.5,2.8-2.1c1-0.6,2.2-1.1,3.5-1.4c1.3-0.4,2.8-0.6,4.3-0.6c1.4,0,2.7,0.1,4,0.4c1.3,0.3,2.5,0.7,3.6,1.3
			c1.1,0.6,2.1,1.3,3.1,2.2c0.9,0.9,1.7,2,2.3,3.2c0.5,1.1,0.9,2.3,1.2,3.6s0.4,3,0.4,5V604h-10.1v-25.1c0-1.3-0.1-2.3-0.2-3.1
			c-0.1-0.8-0.3-1.5-0.6-2.1c-0.6-1.2-1.4-2.1-2.5-2.6c-1.1-0.5-2.4-0.8-3.8-0.8c-2,0-3.8,0.5-5.4,1.4c-1.7,0.9-3.2,2.2-4.6,4V604
			h-10.1v-61.4h10.1V559.3z"/>
		<path class="st4" d="M1800.8,583.5c0,3.2-0.5,6.2-1.4,8.8c-1,2.7-2.3,4.9-4.1,6.8c-1.8,1.9-4,3.4-6.5,4.4c-2.5,1-5.4,1.5-8.5,1.5
			c-3.2,0-6.1-0.5-8.7-1.5c-2.6-1-4.7-2.5-6.5-4.4c-1.8-1.9-3.1-4.2-4.1-6.8c-0.9-2.7-1.4-5.6-1.4-8.8s0.5-6.2,1.4-8.8
			c1-2.7,2.3-4.9,4.1-6.8c1.8-1.9,4-3.4,6.5-4.4c2.5-1,5.4-1.5,8.5-1.5c3.2,0,6.1,0.5,8.7,1.5c2.6,1,4.7,2.5,6.5,4.4
			c1.8,1.9,3.1,4.2,4.1,6.8C1800.3,577.3,1800.8,580.2,1800.8,583.5z M1790.4,583.5c0-2.2-0.3-4.1-0.8-5.8s-1.2-3.1-2.1-4.2
			c-0.9-1.1-2-2-3.3-2.5c-1.3-0.6-2.7-0.8-4.2-0.8c-1.5,0-2.8,0.3-4.1,0.8c-1.3,0.6-2.3,1.4-3.2,2.5c-0.9,1.1-1.6,2.5-2.1,4.2
			c-0.5,1.7-0.8,3.6-0.8,5.8c0,2.2,0.3,4.1,0.8,5.8c0.5,1.7,1.2,3.1,2.1,4.2c0.9,1.1,2,2,3.3,2.5c1.3,0.6,2.6,0.9,4.1,0.9
			c1.5,0,2.9-0.3,4.1-0.9c1.2-0.6,2.3-1.4,3.2-2.5c0.9-1.1,1.6-2.5,2.1-4.2C1790.1,587.6,1790.4,585.6,1790.4,583.5z"/>
		<path class="st4" d="M1834.1,570.9h-0.8c-3.1,0-5.8,0.5-8.1,1.4s-4.1,2.3-5.4,4.2V604h-10.1v-41.1h8.3l0.9,5.7h0.2
			c1.2-2.1,2.8-3.7,4.9-4.9s4.6-1.8,7.5-1.8c1,0,1.9,0.1,2.6,0.2V570.9z"/>
		<path class="st4" d="M1861.2,597c2,0,4-0.2,6.1-0.6c2.1-0.4,4.3-1,6.4-1.7v8c-1.3,0.6-3.3,1.1-6,1.6c-2.7,0.5-5.5,0.8-8.4,0.8
			c-2.9,0-5.7-0.4-8.3-1.1c-2.6-0.7-4.9-2-6.9-3.6c-2-1.7-3.5-3.8-4.6-6.5c-1.1-2.7-1.7-5.9-1.7-9.7c0-3.7,0.5-7,1.6-9.8
			c1.1-2.8,2.5-5.1,4.3-7c1.8-1.8,3.9-3.2,6.2-4.1c2.3-0.9,4.7-1.4,7.2-1.4c2.6,0,5,0.4,7.2,1.2s4.1,2,5.7,3.7
			c1.6,1.7,2.8,3.9,3.7,6.6c0.9,2.7,1.3,5.8,1.3,9.5c0,1.4-0.1,2.6-0.1,3.6h-26.9c0.1,1.9,0.6,3.5,1.3,4.9c0.7,1.3,1.6,2.4,2.8,3.3
			c1.1,0.8,2.5,1.4,4,1.8C1857.8,596.8,1859.5,597,1861.2,597z M1857.2,569.7c-1.3,0-2.4,0.2-3.4,0.7s-1.8,1.1-2.6,1.9
			c-0.7,0.8-1.3,1.7-1.7,2.8c-0.4,1.1-0.7,2.2-0.8,3.4h16.2c0-1.2-0.2-2.4-0.5-3.4c-0.3-1.1-0.8-2-1.4-2.8c-0.6-0.8-1.4-1.4-2.4-1.9
			C1859.6,569.9,1858.5,569.7,1857.2,569.7z"/>
		<path class="st4" d="M1903.8,604v-56.8h10.4V604H1903.8z"/>
		<path class="st4" d="M1935.8,568.6h0.2c0.6-0.8,1.3-1.7,2.2-2.5c0.9-0.8,1.9-1.5,3.1-2.2s2.4-1.1,3.8-1.5c1.4-0.4,2.9-0.6,4.5-0.6
			c1.5,0,2.9,0.2,4.3,0.5c1.4,0.3,2.7,0.9,3.8,1.6s2.2,1.7,3.1,2.8c0.9,1.1,1.6,2.5,2.1,4.1c0.3,0.9,0.5,1.8,0.6,2.9
			c0.1,1,0.1,2.2,0.1,3.6V604h-10.1v-25.1c0-1.1,0-2.1-0.1-2.8c-0.1-0.8-0.2-1.5-0.5-2.1c-0.5-1.3-1.3-2.2-2.3-2.8
			c-1-0.6-2.3-0.8-3.8-0.8c-2,0-3.8,0.5-5.6,1.4c-1.8,0.9-3.4,2.3-4.8,4V604h-10.1v-41.1h8.3L1935.8,568.6z"/>
		<path class="st4" d="M1992.9,592.1c0-0.9-0.2-1.6-0.7-2.2c-0.5-0.6-1.2-1-2-1.4c-0.8-0.4-1.8-0.7-2.8-1c-1.1-0.3-2.2-0.6-3.3-0.8
			c-1.5-0.4-2.9-0.9-4.2-1.4c-1.4-0.5-2.6-1.2-3.6-2.1c-1-0.8-1.9-1.9-2.5-3.2c-0.6-1.3-0.9-2.9-0.9-4.7c0-2.3,0.4-4.3,1.2-6
			c0.8-1.7,1.9-3.1,3.3-4.2c1.4-1.1,3-1.9,4.9-2.5s3.8-0.8,5.9-0.8c2.5,0,4.9,0.2,7.1,0.6c2.2,0.4,4.2,0.9,6,1.6v8.2
			c-0.9-0.3-1.9-0.6-2.9-0.9c-1-0.3-2.1-0.5-3.1-0.7c-1.1-0.2-2.1-0.4-3.2-0.5c-1-0.1-2-0.2-3-0.2c-1.2,0-2.2,0.1-3,0.3
			s-1.5,0.5-2,0.9c-0.5,0.4-0.9,0.8-1.1,1.3c-0.2,0.5-0.3,1-0.3,1.5c0,0.9,0.2,1.7,0.7,2.3c0.5,0.6,1.2,1.1,2.1,1.4s1.8,0.7,2.8,0.9
			c1,0.2,1.9,0.5,2.8,0.7c1.4,0.3,2.8,0.8,4.2,1.2c1.4,0.5,2.7,1.2,3.8,2c1.1,0.9,2.1,2,2.8,3.4c0.7,1.4,1.1,3.1,1.1,5.2
			c0,2.3-0.4,4.3-1.3,6.1c-0.9,1.7-2.1,3.2-3.7,4.3c-1.6,1.1-3.5,2-5.6,2.5c-2.2,0.6-4.6,0.8-7.2,0.8c-2.6,0-4.9-0.2-7-0.6
			s-3.8-0.9-5.2-1.5v-8.1c2.2,0.8,4.2,1.4,6.1,1.7s3.6,0.4,5.2,0.4c1.2,0,2.4-0.1,3.5-0.3s2-0.5,2.8-0.9c0.8-0.4,1.4-0.9,1.8-1.5
			C1992.7,593.7,1992.9,592.9,1992.9,592.1z"/>
		<path class="st4" d="M2029.7,605.1c-4.1,0-7.6-0.7-10.3-2.1s-4.8-3.3-6.2-5.7c-0.7-1.3-1.3-2.7-1.6-4.2c-0.4-1.5-0.5-3.2-0.5-5.1
			v-25.1h10.1v24.1c0,1.4,0.1,2.6,0.3,3.6c0.2,1,0.5,1.9,0.9,2.6c0.7,1.2,1.6,2.2,2.9,2.8c1.2,0.6,2.7,0.9,4.5,0.9
			c1.8,0,3.4-0.3,4.6-1c1.3-0.7,2.3-1.7,2.9-3.1c0.7-1.3,1-3.2,1-5.6v-24.3h10.1V588c0,3.3-0.6,6.2-1.7,8.4
			c-0.7,1.3-1.5,2.5-2.5,3.5c-1,1.1-2.2,2-3.6,2.7s-3,1.3-4.8,1.7S2031.9,605.1,2029.7,605.1z"/>
		<path class="st4" d="M2083.3,570.9h-0.8c-3.1,0-5.8,0.5-8.1,1.4s-4.1,2.3-5.4,4.2V604h-10.1v-41.1h8.3l0.9,5.7h0.2
			c1.2-2.1,2.8-3.7,4.9-4.9s4.6-1.8,7.5-1.8c1,0,1.9,0.1,2.6,0.2V570.9z"/>
		<path class="st4" d="M2113.5,599.6h-0.2c-0.6,0.6-1.2,1.2-2,1.8c-0.8,0.6-1.7,1.2-2.7,1.8c-1,0.6-2.2,1-3.4,1.3
			c-1.2,0.3-2.6,0.5-4,0.5c-2,0-3.8-0.3-5.5-0.9s-3.2-1.5-4.4-2.6c-1.2-1.1-2.2-2.5-2.9-4.2c-0.7-1.6-1-3.4-1-5.5
			c0-2.2,0.4-4.2,1.2-5.9c0.8-1.8,1.9-3.2,3.4-4.5s3.2-2.1,5.2-2.8c2-0.6,4.2-1,6.7-1c1.8,0,3.4,0.1,4.9,0.3
			c1.5,0.2,2.8,0.5,3.9,0.8v-1.7c0-1-0.2-1.9-0.5-2.8c-0.3-0.9-0.8-1.7-1.6-2.4s-1.7-1.2-2.8-1.7c-1.2-0.4-2.6-0.6-4.2-0.6
			c-2,0-4.1,0.2-6.1,0.7c-2,0.5-4.2,1.1-6.6,2v-7.8c2.1-0.9,4.3-1.6,6.6-2.1c2.3-0.5,4.8-0.7,7.3-0.8c3,0,5.6,0.4,7.9,1.1
			c2.2,0.7,4.1,1.7,5.6,3c1.5,1.3,2.6,2.8,3.4,4.6c0.7,1.8,1.1,3.7,1.1,5.7v15.5c0,2.7,0,5,0.1,7c0.1,2,0.1,3.7,0.2,5.2h-9.1
			L2113.5,599.6z M2112.7,586.5c-1-0.2-2.1-0.4-3.3-0.6c-1.2-0.2-2.5-0.3-3.8-0.3c-2.5,0-4.4,0.5-5.8,1.5c-1.4,1-2.1,2.5-2.1,4.5
			c0,0.9,0.2,1.7,0.5,2.4s0.8,1.3,1.3,1.7c0.6,0.5,1.2,0.8,1.9,1c0.7,0.2,1.5,0.3,2.3,0.3c1,0,2-0.1,2.9-0.4c0.9-0.3,1.7-0.6,2.5-1
			c0.8-0.4,1.4-0.9,2.1-1.4c0.6-0.5,1.1-1,1.5-1.5V586.5z"/>
		<path class="st4" d="M2143.2,568.6h0.2c0.6-0.8,1.3-1.7,2.2-2.5c0.9-0.8,1.9-1.5,3.1-2.2s2.4-1.1,3.8-1.5c1.4-0.4,2.9-0.6,4.5-0.6
			c1.5,0,2.9,0.2,4.3,0.5c1.4,0.3,2.7,0.9,3.8,1.6s2.2,1.7,3.1,2.8c0.9,1.1,1.6,2.5,2.1,4.1c0.3,0.9,0.5,1.8,0.6,2.9
			c0.1,1,0.1,2.2,0.1,3.6V604h-10.1v-25.1c0-1.1,0-2.1-0.1-2.8c-0.1-0.8-0.2-1.5-0.5-2.1c-0.5-1.3-1.3-2.2-2.3-2.8
			c-1-0.6-2.3-0.8-3.8-0.8c-2,0-3.8,0.5-5.6,1.4c-1.8,0.9-3.4,2.3-4.8,4V604H2134v-41.1h8.3L2143.2,568.6z"/>
		<path class="st4" d="M2211.8,603.1c-1.3,0.5-2.8,1-4.7,1.4c-1.8,0.4-3.8,0.6-5.8,0.6c-3,0-5.7-0.4-8.3-1.3s-4.8-2.1-6.7-3.9
			c-1.9-1.7-3.4-3.9-4.5-6.6c-1.1-2.6-1.7-5.7-1.7-9.3c0-4,0.6-7.4,1.9-10.2c1.3-2.8,2.9-5.1,4.9-6.9s4.3-3.1,6.8-3.9
			c2.5-0.8,5-1.3,7.5-1.3c1.8,0,3.6,0.2,5.3,0.5s3.2,0.8,4.6,1.3v8.2c-1.2-0.5-2.6-1-4-1.3s-2.9-0.5-4.5-0.5s-3.2,0.2-4.6,0.7
			c-1.5,0.5-2.8,1.3-3.9,2.4c-1.1,1.1-2,2.5-2.7,4.3s-1,3.9-1,6.4c0,1.8,0.3,3.5,0.8,5.1c0.5,1.6,1.3,3,2.2,4.1c1,1.1,2.2,2,3.7,2.7
			c1.5,0.7,3.3,1,5.4,1c1.8,0,3.5-0.2,5-0.6c1.5-0.4,2.9-0.8,4.2-1.4V603.1z"/>
		<path class="st4" d="M2241.7,597c2,0,4-0.2,6.1-0.6c2.1-0.4,4.3-1,6.4-1.7v8c-1.3,0.6-3.3,1.1-6,1.6c-2.7,0.5-5.5,0.8-8.4,0.8
			c-2.9,0-5.7-0.4-8.3-1.1c-2.6-0.7-4.9-2-6.9-3.6c-2-1.7-3.5-3.8-4.6-6.5c-1.1-2.7-1.7-5.9-1.7-9.7c0-3.7,0.5-7,1.6-9.8
			c1.1-2.8,2.5-5.1,4.3-7c1.8-1.8,3.9-3.2,6.2-4.1c2.3-0.9,4.7-1.4,7.2-1.4c2.6,0,5,0.4,7.2,1.2s4.1,2,5.7,3.7
			c1.6,1.7,2.8,3.9,3.7,6.6c0.9,2.7,1.3,5.8,1.3,9.5c0,1.4-0.1,2.6-0.1,3.6h-26.9c0.1,1.9,0.6,3.5,1.3,4.9c0.7,1.3,1.6,2.4,2.8,3.3
			c1.1,0.8,2.5,1.4,4,1.8C2238.2,596.8,2239.9,597,2241.7,597z M2237.7,569.7c-1.3,0-2.4,0.2-3.4,0.7s-1.8,1.1-2.6,1.9
			c-0.7,0.8-1.3,1.7-1.7,2.8c-0.4,1.1-0.7,2.2-0.8,3.4h16.2c0-1.2-0.2-2.4-0.5-3.4c-0.3-1.1-0.8-2-1.4-2.8c-0.6-0.8-1.4-1.4-2.4-1.9
			C2240,569.9,2238.9,569.7,2237.7,569.7z"/>
	</g>
</g>
<g id="Layer_5">
	<g>
		<path class="st5" d="M923.7,674.4l-4.8,19.5h-1.4c-0.3-3.1-0.9-5.5-1.7-7.3c-1.2-2.7-2.8-4.7-4.7-6.2c-2-1.4-4.1-2.2-6.4-2.2
			c-2.2,0-4.1,0.8-5.8,2.5c-1.7,1.7-2.5,3.6-2.5,5.7c0,2.1,0.6,4.2,1.7,6.2c1.1,2,3.9,5.1,8.1,9.1c3.4,3.3,5.7,6.1,6.9,8.4
			s1.8,4.9,1.8,7.6c0,3.1-0.8,5.9-2.5,8.5s-4,4.6-7.1,6c-3.1,1.4-6.7,2.1-10.6,2.1c-2.4,0-5.5-0.4-9.2-1.1c-3.7-0.7-6.1-1.1-7.4-1.1
			c-1,0-1.8,0.1-2.6,0.4c-0.8,0.3-1.7,0.9-2.8,1.7h-1.7l5.1-21.9h1.6c0.4,3.8,1.1,7.1,2.3,9.8c1.2,2.7,2.9,4.8,5.1,6.3
			c2.2,1.5,4.7,2.3,7.6,2.3c2.8,0,5.1-0.9,7-2.8c1.9-1.9,2.8-4,2.8-6.5c0-2.1-0.5-4.2-1.6-6.1c-1.1-2-3.5-4.8-7.3-8.5
			c-3.8-3.7-6.4-7.1-7.8-10c-1-2.2-1.6-4.5-1.6-7c0-4.3,1.7-8,5-11.1c3.4-3.1,7.8-4.7,13.2-4.7c2.5,0,5.7,0.6,9.7,1.7
			c2.3,0.7,4,1,5,1c0.8,0,1.6-0.2,2.2-0.5c0.7-0.4,1.4-1.1,2.3-2.1H923.7z"/>
		<path class="st5" d="M949.9,693.9c2.2,0,4.3,0.5,6.3,1.5c2,1,3.5,2.5,4.5,4.3s1.5,3.9,1.5,6.1c0,4.6-1.3,9.2-3.8,13.7
			c-2.6,4.6-5.9,8.2-10.1,10.8c-4.2,2.6-8.4,4-12.6,4c-3.8,0-6.8-1.1-8.9-3.4c-2.1-2.3-3.2-5.1-3.2-8.4c0-3.9,0.8-7.6,2.4-11.1
			c1.6-3.4,3.6-6.4,6-9c2.4-2.6,5.2-4.6,8.3-6.2C943.3,694.7,946.5,693.9,949.9,693.9z M948.1,696.2c-1.5,0-2.7,0.4-3.7,1.3
			c-2,1.8-4.2,5.9-6.7,12.5c-2.5,6.5-3.7,12.5-3.7,17.7c0,1.3,0.4,2.4,1.2,3.2c0.8,0.8,1.7,1.3,2.8,1.3c1.1,0,2.1-0.3,2.9-1
			c1.2-1,2.8-3.3,4.6-6.9c1.8-3.5,3.3-7.5,4.5-11.8c1.2-4.3,1.7-8.2,1.7-11.8c0-1.5-0.4-2.6-1.1-3.4S949.1,696.2,948.1,696.2z"/>
		<path class="st5" d="M1008.7,693.9l-8.7,30.2c-0.5,1.7-0.7,2.9-0.7,3.4c0,0.3,0.1,0.6,0.4,0.9s0.5,0.4,0.8,0.4
			c0.5,0,1-0.2,1.4-0.6c1.3-1,2.8-2.9,4.6-5.7l1.4,0.8c-4.3,7.4-8.8,11.2-13.6,11.2c-1.8,0-3.3-0.5-4.4-1.5s-1.6-2.3-1.6-3.9
			c0-1,0.2-2.4,0.7-4l5.9-20.3c0.6-2,0.8-3.4,0.8-4.4c0-0.6-0.3-1.2-0.8-1.7c-0.5-0.5-1.3-0.7-2.2-0.7c-0.4,0-0.9,0-1.5,0l0.6-1.7
			l14.4-2.3H1008.7z M1006,674.4c1.8,0,3.2,0.6,4.4,1.8c1.2,1.2,1.8,2.7,1.8,4.4s-0.6,3.2-1.8,4.4c-1.2,1.2-2.7,1.8-4.4,1.8
			c-1.7,0-3.2-0.6-4.4-1.8c-1.2-1.2-1.8-2.7-1.8-4.4s0.6-3.2,1.8-4.4C1002.8,675,1004.3,674.4,1006,674.4z"/>
		<path class="st5" d="M1035.6,683.6l-3.4,11.5h5.6l-1.5,4.9h-5.5l-7.1,24.6c-0.5,1.5-0.7,2.7-0.7,3.5c0,0.4,0.1,0.7,0.4,1
			s0.5,0.4,0.8,0.4c0.5,0,1-0.2,1.5-0.6c1.3-1,2.8-2.7,4.5-5.2l1.5,0.9c-2,3.4-4.1,5.9-6.5,7.5s-4.7,2.4-6.9,2.4
			c-1.9,0-3.4-0.5-4.5-1.5c-1.1-1-1.6-2.2-1.6-3.7c0-1.6,0.4-3.7,1.1-6.3l6.7-23h-5.8l0.8-3.1c3.6-1.3,6.7-2.9,9.2-4.7
			c2.5-1.8,5.5-4.7,9-8.6H1035.6z"/>
		<path class="st5" d="M1048.2,701.3l-1-1.8c4.3-2.4,7-4.3,8.1-5.6c0.8-1,1.2-2,1.2-3c0-1.1-0.7-2.3-2.2-3.7s-2.4-2.5-2.9-3.4
			c-0.4-0.7-0.6-1.6-0.6-2.7c0-1.8,0.7-3.4,2.1-4.8c1.4-1.3,3-2,5-2c1.9,0,3.5,0.8,4.9,2.2c1.4,1.5,2.1,3.4,2.1,5.6
			c0,3.5-1.4,7-4.1,10.4C1058.2,696.1,1054,699,1048.2,701.3z"/>
		<path class="st5" d="M1096.1,693.9l-1.9,13.1h-1.6c-0.2-3.4-1.3-6.1-3.1-8c-1.9-2-3.8-2.9-6-2.9c-1.3,0-2.4,0.4-3.2,1.1
			s-1.3,1.7-1.3,2.8c0,0.9,0.2,1.8,0.6,2.5c0.4,0.8,1.2,1.9,2.5,3.2c4.5,4.8,7.2,8.1,8.1,9.9c1,1.8,1.4,3.7,1.4,5.8
			c0,2.2-0.6,4.3-1.7,6.3c-1.1,2-2.8,3.6-5.1,4.8s-4.6,1.8-7,1.8c-1.6,0-3.7-0.3-6.1-1c-1.6-0.5-2.8-0.7-3.6-0.7
			c-0.7,0-1.3,0.1-1.7,0.3c-0.4,0.2-0.8,0.7-1.3,1.3h-1.6l2.1-14.1h1.4c1,3.4,1.9,5.9,2.8,7.3c0.9,1.5,2,2.6,3.5,3.5
			c1.4,0.9,2.8,1.3,4.2,1.3c1.6,0,2.8-0.5,3.9-1.5s1.5-2.1,1.5-3.5c0-1.3-0.3-2.6-1-3.9c-0.7-1.2-2.2-3.2-4.6-5.8
			c-3.3-3.6-5.5-6.4-6.5-8.3c-0.7-1.4-1.1-3-1.1-4.8c0-3.1,1.1-5.6,3.3-7.6c2.2-2,5.3-3.1,9.4-3.1c1.8,0,3.9,0.3,6.4,0.9
			c1.3,0.3,2.3,0.5,3.1,0.5c1.1,0,2-0.5,2.7-1.4H1096.1z"/>
		<path class="st5" d="M1160.9,694.5l-8.2,28.2l-0.8,3.4c-0.1,0.4-0.1,0.7-0.1,0.9c0,0.3,0.1,0.6,0.4,0.9c0.2,0.3,0.5,0.4,0.7,0.4
			c0.6,0,1.4-0.5,2.5-1.4c0.4-0.4,1.4-1.7,3.1-3.9l1.5,0.8c-2,3.7-4.2,6.4-6.4,8c-2.3,1.7-4.7,2.5-7.4,2.5c-1.6,0-2.8-0.4-3.7-1.3
			s-1.3-1.9-1.3-3.2c0-1.1,0.5-3.2,1.4-6.2l1-3.4c-3.3,5.6-6.4,9.6-9.5,12c-1.8,1.4-3.6,2-5.6,2c-2.6,0-4.5-1.1-5.6-3.2
			s-1.7-4.5-1.7-7.2c0-4,1.2-8.6,3.6-13.7c2.4-5.2,5.6-9.3,9.6-12.5c3.3-2.6,6.3-3.9,9.2-3.9c1.6,0,2.9,0.5,3.8,1.4
			c1,0.9,1.7,2.6,2.1,5l1.5-5.2L1160.9,694.5z M1147.3,702.6c0-2.3-0.4-3.9-1.1-5c-0.5-0.7-1.2-1.1-2.1-1.1s-1.8,0.4-2.7,1.3
			c-1.9,1.8-3.9,5.3-6.1,10.7c-2.2,5.4-3.3,10-3.3,13.9c0,1.5,0.2,2.6,0.7,3.2c0.5,0.7,1,1,1.6,1c1.3,0,2.6-0.7,3.9-2.2
			c1.9-2.1,3.5-4.7,5-7.7C1146,711.4,1147.3,706.7,1147.3,702.6z"/>
		<path class="st5" d="M1190.2,674.4l-14,47.8c-0.8,2.8-1.2,4.6-1.2,5.3c0,0.4,0.1,0.7,0.4,0.9c0.2,0.3,0.5,0.4,0.8,0.4
			c0.5,0,1-0.2,1.4-0.6c1.4-1.1,2.9-3,4.5-5.6l1.7,0.8c-2.7,4.3-5.3,7.4-7.9,9.2c-1.8,1.2-3.7,1.9-5.7,1.9c-1.9,0-3.4-0.5-4.5-1.5
			s-1.7-2.2-1.7-3.6c0-1,0.3-2.7,1-5l11.5-39.1c0.6-2.1,0.9-3.6,0.9-4.3c0-0.7-0.3-1.2-0.9-1.6c-0.8-0.6-2-0.8-3.6-0.7l0.5-1.6
			l14.3-2.5H1190.2z"/>
		<path class="st5" d="M1224.2,693.9l3.1,29.8c4.3-4.2,7.1-7.5,8.4-10c1.3-2.4,2-4.5,2-6.1c0-0.6-0.1-1.2-0.4-1.9
			c-0.3-0.6-0.8-1.5-1.7-2.6c-0.8-1.1-1.3-1.8-1.4-2.1c-0.2-0.5-0.3-1.2-0.3-2c0-1.4,0.5-2.7,1.5-3.7c1-1,2.2-1.5,3.7-1.5
			c1.5,0,2.7,0.5,3.6,1.5c1.2,1.5,1.9,3.2,1.9,5.1c0,3.1-1.5,7.3-4.5,12.3s-9.8,12.3-20.5,21.6h-1.7l-2.6-26.1l-18.3,26.1h-1.8
			c0.4-7.9,0.6-15.2,0.6-22.1c0-4.5-0.2-7.7-0.7-9.7c-0.3-1.2-0.8-2-1.5-2.6c-0.7-0.6-1.5-0.9-2.4-0.9c-0.5,0-1,0.1-1.7,0.2v-1.6
			l14.6-3.9c0.8,2.2,1.3,4.3,1.6,6.2c0.5,3,0.7,6.5,0.7,10.5c0,1.4-0.1,3.6-0.2,6.5l16.4-23.2H1224.2z"/>
		<path class="st5" d="M1286.5,694.5l-8.2,28.2l-0.8,3.4c-0.1,0.4-0.1,0.7-0.1,0.9c0,0.3,0.1,0.6,0.4,0.9c0.2,0.3,0.5,0.4,0.7,0.4
			c0.6,0,1.4-0.5,2.5-1.4c0.4-0.4,1.4-1.7,3.1-3.9l1.5,0.8c-2,3.7-4.2,6.4-6.4,8c-2.3,1.7-4.7,2.5-7.4,2.5c-1.6,0-2.8-0.4-3.7-1.3
			s-1.3-1.9-1.3-3.2c0-1.1,0.5-3.2,1.4-6.2l1-3.4c-3.3,5.6-6.4,9.6-9.5,12c-1.8,1.4-3.6,2-5.6,2c-2.6,0-4.5-1.1-5.6-3.2
			s-1.7-4.5-1.7-7.2c0-4,1.2-8.6,3.6-13.7c2.4-5.2,5.6-9.3,9.6-12.5c3.3-2.6,6.3-3.9,9.2-3.9c1.6,0,2.9,0.5,3.8,1.4
			c1,0.9,1.7,2.6,2.1,5l1.5-5.2L1286.5,694.5z M1272.9,702.6c0-2.3-0.4-3.9-1.1-5c-0.5-0.7-1.2-1.1-2.1-1.1s-1.8,0.4-2.7,1.3
			c-1.9,1.8-3.9,5.3-6.1,10.7c-2.2,5.4-3.3,10-3.3,13.9c0,1.5,0.2,2.6,0.7,3.2c0.5,0.7,1,1,1.6,1c1.3,0,2.6-0.7,3.9-2.2
			c1.9-2.1,3.5-4.7,5-7.7C1271.5,711.4,1272.9,706.7,1272.9,702.6z"/>
		<path class="st5" d="M1290.5,697.7l13.1-3.8c1,1.3,1.8,2.5,2.2,3.7c0.8,2,1.3,4.8,1.6,8.3c0.6,7,1,14.4,1.2,22.3
			c3-4,6.5-9.3,10.4-15.8c1.2-2,1.8-3.8,1.8-5.6c0-1.1-0.7-2.1-2.1-3.1s-2.2-1.8-2.6-2.3c-0.3-0.6-0.5-1.3-0.5-2.1
			c0-1.4,0.5-2.6,1.5-3.7c1-1,2.3-1.6,3.8-1.6c1.6,0,2.9,0.6,4.1,1.8c1.1,1.2,1.7,2.6,1.7,4.2c0,1.9-0.5,4.1-1.6,6.6
			c-1.1,2.5-3.5,6.8-7.4,12.9c-5,7.8-9.9,14.5-14.7,20.2c-3.1,3.6-5.6,6.2-7.5,7.8c-1.9,1.6-3.9,2.9-5.9,3.8
			c-1.2,0.5-2.4,0.8-3.6,0.8c-1.6,0-3-0.6-4.1-1.7c-1.1-1.1-1.7-2.5-1.7-4s0.5-2.9,1.5-3.9c1-1.1,2.2-1.6,3.6-1.6
			c1.7,0,3.3,0.9,4.8,2.7c1,1.2,1.8,1.8,2.4,1.8c0.7,0,1.3-0.2,1.9-0.6c0.8-0.5,2-1.5,3.6-3.1c0.2-3.5,0.3-6.2,0.3-8
			c0-2.4-0.1-5.9-0.3-10.3l-0.7-16.2c-0.3-3-0.9-5.1-1.9-6.4c-0.8-1-1.8-1.4-3.1-1.4c-0.5,0-1,0-1.6,0.1V697.7z"/>
		<path class="st5" d="M1359.2,693.9l-1.9,13.1h-1.6c-0.2-3.4-1.3-6.1-3.1-8c-1.9-2-3.8-2.9-6-2.9c-1.3,0-2.4,0.4-3.2,1.1
			s-1.3,1.7-1.3,2.8c0,0.9,0.2,1.8,0.6,2.5c0.4,0.8,1.2,1.9,2.5,3.2c4.5,4.8,7.2,8.1,8.1,9.9c1,1.8,1.4,3.7,1.4,5.8
			c0,2.2-0.6,4.3-1.7,6.3c-1.1,2-2.8,3.6-5.1,4.8s-4.6,1.8-7,1.8c-1.6,0-3.7-0.3-6.1-1c-1.6-0.5-2.8-0.7-3.6-0.7
			c-0.7,0-1.3,0.1-1.7,0.3c-0.4,0.2-0.8,0.7-1.3,1.3h-1.6l2.1-14.1h1.4c1,3.4,1.9,5.9,2.8,7.3c0.9,1.5,2,2.6,3.5,3.5
			c1.4,0.9,2.8,1.3,4.2,1.3c1.6,0,2.8-0.5,3.9-1.5s1.5-2.1,1.5-3.5c0-1.3-0.3-2.6-1-3.9c-0.7-1.2-2.2-3.2-4.6-5.8
			c-3.3-3.6-5.5-6.4-6.5-8.3c-0.7-1.4-1.1-3-1.1-4.8c0-3.1,1.1-5.6,3.3-7.6c2.2-2,5.3-3.1,9.4-3.1c1.8,0,3.9,0.3,6.4,0.9
			c1.3,0.3,2.3,0.5,3.1,0.5c1.1,0,2-0.5,2.7-1.4H1359.2z"/>
		<path class="st5" d="M1414.7,693.9l-1.9,13.1h-1.6c-0.2-3.4-1.3-6.1-3.1-8c-1.9-2-3.8-2.9-6-2.9c-1.3,0-2.4,0.4-3.2,1.1
			s-1.3,1.7-1.3,2.8c0,0.9,0.2,1.8,0.6,2.5c0.4,0.8,1.2,1.9,2.5,3.2c4.5,4.8,7.2,8.1,8.1,9.9c1,1.8,1.4,3.7,1.4,5.8
			c0,2.2-0.6,4.3-1.7,6.3c-1.1,2-2.8,3.6-5.1,4.8s-4.6,1.8-7,1.8c-1.6,0-3.7-0.3-6.1-1c-1.6-0.5-2.8-0.7-3.6-0.7
			c-0.7,0-1.3,0.1-1.7,0.3c-0.4,0.2-0.8,0.7-1.3,1.3h-1.6l2.1-14.1h1.4c1,3.4,1.9,5.9,2.8,7.3c0.9,1.5,2,2.6,3.5,3.5
			c1.4,0.9,2.8,1.3,4.2,1.3c1.6,0,2.8-0.5,3.9-1.5s1.5-2.1,1.5-3.5c0-1.3-0.3-2.6-1-3.9c-0.7-1.2-2.2-3.2-4.6-5.8
			c-3.3-3.6-5.5-6.4-6.5-8.3c-0.7-1.4-1.1-3-1.1-4.8c0-3.1,1.1-5.6,3.3-7.6c2.2-2,5.3-3.1,9.4-3.1c1.8,0,3.9,0.3,6.4,0.9
			c1.3,0.3,2.3,0.5,3.1,0.5c1.1,0,2-0.5,2.7-1.4H1414.7z"/>
		<path class="st5" d="M1439.3,693.9l-5.4,18.2c3.6-5.6,6.3-9.4,8-11.3c2.5-2.9,4.5-4.7,6.1-5.6c1.6-0.9,3.2-1.3,4.8-1.3
			c1.8,0,3.2,0.6,4,1.7c0.8,1.1,1.2,2.3,1.2,3.6c0,1.4-0.4,3.4-1.1,6.1l-1.9,6.8c3.7-5.7,6.3-9.4,7.9-11.3c2.5-2.9,4.7-4.8,6.5-5.9
			c1.3-0.7,2.6-1.1,4.1-1.1c1.5,0,2.8,0.5,3.8,1.5c1,1,1.5,2.3,1.5,3.9c0,1.8-0.4,4.2-1.3,7l-4.7,15.8c-0.7,2.3-1.1,3.9-1.1,4.5
			c0,0.2,0.1,0.4,0.3,0.6c0.2,0.2,0.4,0.3,0.6,0.3c0.3,0,0.6-0.1,0.8-0.3c1-0.8,2.1-2,3.2-3.6c0.3-0.3,0.6-0.9,1.1-1.6l1.4,0.9
			c-2,3.6-4.1,6.3-6.4,8c-2.3,1.7-4.5,2.5-6.5,2.5c-1.7,0-3.1-0.5-4.2-1.4c-1-0.9-1.6-2.1-1.6-3.3c0-1.2,0.4-3.1,1.1-5.5l4.8-16.5
			c0.7-2.3,1-3.7,1-4.3c0-0.2-0.1-0.4-0.3-0.6c-0.2-0.2-0.4-0.3-0.6-0.3c-0.4,0-0.7,0.1-1.1,0.3c-0.5,0.3-1.4,1-2.5,2.2
			c-1.1,1.2-2.7,3.3-4.8,6.4c-2.1,3.1-3.5,5.5-4.3,7.2c-0.8,1.7-1.6,4-2.4,6.7l-2.6,8.7H1438l7.9-27.7c0.4-1.5,0.6-2.5,0.6-3.1
			c0-0.2-0.1-0.4-0.3-0.6c-0.2-0.2-0.4-0.3-0.6-0.3c-1,0-2.7,1.4-5,4.1c-3.5,4.2-6.6,9.3-9.4,15.3l-3.4,12.2h-10.8l8-27.3
			c0.8-2.7,1.2-4.6,1.2-5.7c0-0.5-0.1-0.8-0.3-1.2c-0.2-0.3-0.6-0.6-1.1-0.8c-0.5-0.2-1.5-0.3-2.9-0.3l0.4-1.6l14.5-2.5H1439.3z"/>
		<path class="st5" d="M1512.4,693.9c2.2,0,4.3,0.5,6.3,1.5c2,1,3.5,2.5,4.5,4.3s1.5,3.9,1.5,6.1c0,4.6-1.3,9.2-3.8,13.7
			c-2.6,4.6-5.9,8.2-10.1,10.8c-4.2,2.6-8.4,4-12.6,4c-3.8,0-6.8-1.1-8.9-3.4c-2.1-2.3-3.2-5.1-3.2-8.4c0-3.9,0.8-7.6,2.4-11.1
			c1.6-3.4,3.6-6.4,6-9c2.4-2.6,5.2-4.6,8.3-6.2C1505.7,694.7,1509,693.9,1512.4,693.9z M1510.6,696.2c-1.5,0-2.7,0.4-3.7,1.3
			c-2,1.8-4.2,5.9-6.7,12.5c-2.5,6.5-3.7,12.5-3.7,17.7c0,1.3,0.4,2.4,1.2,3.2c0.8,0.8,1.7,1.3,2.8,1.3c1.1,0,2.1-0.3,2.9-1
			c1.2-1,2.8-3.3,4.6-6.9c1.8-3.5,3.3-7.5,4.5-11.8c1.2-4.3,1.7-8.2,1.7-11.8c0-1.5-0.4-2.6-1.1-3.4S1511.6,696.2,1510.6,696.2z"/>
		<path class="st5" d="M1555.8,693.9c2.2,0,4.3,0.5,6.3,1.5c2,1,3.5,2.5,4.5,4.3s1.5,3.9,1.5,6.1c0,4.6-1.3,9.2-3.8,13.7
			c-2.6,4.6-5.9,8.2-10.1,10.8c-4.2,2.6-8.4,4-12.6,4c-3.8,0-6.8-1.1-8.9-3.4c-2.1-2.3-3.2-5.1-3.2-8.4c0-3.9,0.8-7.6,2.4-11.1
			c1.6-3.4,3.6-6.4,6-9c2.4-2.6,5.2-4.6,8.3-6.2C1549.2,694.7,1552.4,693.9,1555.8,693.9z M1554.1,696.2c-1.5,0-2.7,0.4-3.7,1.3
			c-2,1.8-4.2,5.9-6.7,12.5c-2.5,6.5-3.7,12.5-3.7,17.7c0,1.3,0.4,2.4,1.2,3.2c0.8,0.8,1.7,1.3,2.8,1.3c1.1,0,2.1-0.3,2.9-1
			c1.2-1,2.8-3.3,4.6-6.9c1.8-3.5,3.3-7.5,4.5-11.8c1.2-4.3,1.7-8.2,1.7-11.8c0-1.5-0.4-2.6-1.1-3.4S1555,696.2,1554.1,696.2z"/>
		<path class="st5" d="M1595.6,683.6l-3.4,11.5h5.6l-1.5,4.9h-5.5l-7.1,24.6c-0.5,1.5-0.7,2.7-0.7,3.5c0,0.4,0.1,0.7,0.4,1
			s0.5,0.4,0.8,0.4c0.5,0,1-0.2,1.5-0.6c1.3-1,2.8-2.7,4.5-5.2l1.5,0.9c-2,3.4-4.1,5.9-6.5,7.5s-4.7,2.4-6.9,2.4
			c-1.9,0-3.4-0.5-4.5-1.5c-1.1-1-1.6-2.2-1.6-3.7c0-1.6,0.4-3.7,1.1-6.3l6.7-23h-5.8l0.8-3.1c3.6-1.3,6.7-2.9,9.2-4.7
			c2.5-1.8,5.5-4.7,9-8.6H1595.6z"/>
		<path class="st5" d="M1623.4,674.4l-11,38.2c3.8-5.6,6.6-9.4,8.3-11.4c2.6-2.9,4.8-4.8,6.6-5.8c1.9-1,3.6-1.5,5.3-1.5
			c1.4,0,2.7,0.5,3.7,1.6c1,1.1,1.5,2.5,1.5,4.3c0,1.5-0.3,3.4-1,5.7l-5.4,18.1c-0.5,1.6-0.7,2.6-0.7,3.2c0,0.3,0.1,0.5,0.3,0.7
			c0.2,0.2,0.4,0.3,0.7,0.3c0.3,0,0.7-0.1,1-0.4c0.9-0.7,1.9-1.8,2.9-3.4c0.3-0.4,0.7-1,1.2-1.8l1.7,0.9c-2.4,4-4.7,6.8-6.9,8.3
			c-2.2,1.5-4.2,2.2-6.2,2.2c-1.8,0-3.1-0.5-4.1-1.4c-1-0.9-1.5-2-1.5-3.4c0-1.2,0.3-3,1-5.3l5.3-18.1c0.3-1.2,0.5-2.1,0.5-2.7
			c0-0.3-0.1-0.6-0.4-0.8c-0.2-0.2-0.5-0.4-0.8-0.4c-1,0-2.4,0.8-4.2,2.5c-3.7,3.5-7.4,8.9-11,16.4l-3.8,12.6h-10.5l13.9-47.9
			c0.6-2,0.8-3.5,0.8-4.4c0-0.7-0.3-1.3-0.8-1.7c-0.7-0.5-1.9-0.8-3.4-0.7l0.3-1.7l14.1-2.5H1623.4z"/>
		<path class="st5" d="M1697.2,693.9l-1.9,13.1h-1.6c-0.2-3.4-1.3-6.1-3.1-8c-1.9-2-3.8-2.9-6-2.9c-1.3,0-2.4,0.4-3.2,1.1
			s-1.3,1.7-1.3,2.8c0,0.9,0.2,1.8,0.6,2.5c0.4,0.8,1.2,1.9,2.5,3.2c4.5,4.8,7.2,8.1,8.1,9.9c1,1.8,1.4,3.7,1.4,5.8
			c0,2.2-0.6,4.3-1.7,6.3c-1.1,2-2.8,3.6-5.1,4.8s-4.6,1.8-7,1.8c-1.6,0-3.7-0.3-6.1-1c-1.6-0.5-2.8-0.7-3.6-0.7
			c-0.7,0-1.3,0.1-1.7,0.3c-0.4,0.2-0.8,0.7-1.3,1.3h-1.6l2.1-14.1h1.4c1,3.4,1.9,5.9,2.8,7.3c0.9,1.5,2,2.6,3.5,3.5
			c1.4,0.9,2.8,1.3,4.2,1.3c1.6,0,2.8-0.5,3.9-1.5s1.5-2.1,1.5-3.5c0-1.3-0.3-2.6-1-3.9c-0.7-1.2-2.2-3.2-4.6-5.8
			c-3.3-3.6-5.5-6.4-6.5-8.3c-0.7-1.4-1.1-3-1.1-4.8c0-3.1,1.1-5.6,3.3-7.6c2.2-2,5.3-3.1,9.4-3.1c1.8,0,3.9,0.3,6.4,0.9
			c1.3,0.3,2.3,0.5,3.1,0.5c1.1,0,2-0.5,2.7-1.4H1697.2z"/>
		<path class="st5" d="M1740.3,694.5l-8.2,28.2l-0.8,3.4c-0.1,0.4-0.1,0.7-0.1,0.9c0,0.3,0.1,0.6,0.4,0.9c0.2,0.3,0.5,0.4,0.7,0.4
			c0.6,0,1.4-0.5,2.5-1.4c0.4-0.4,1.4-1.7,3.1-3.9l1.5,0.8c-2,3.7-4.2,6.4-6.4,8c-2.3,1.7-4.7,2.5-7.4,2.5c-1.6,0-2.8-0.4-3.7-1.3
			s-1.3-1.9-1.3-3.2c0-1.1,0.5-3.2,1.4-6.2l1-3.4c-3.3,5.6-6.4,9.6-9.5,12c-1.8,1.4-3.6,2-5.6,2c-2.6,0-4.5-1.1-5.6-3.2
			s-1.7-4.5-1.7-7.2c0-4,1.2-8.6,3.6-13.7c2.4-5.2,5.6-9.3,9.6-12.5c3.3-2.6,6.3-3.9,9.2-3.9c1.6,0,2.9,0.5,3.8,1.4
			c1,0.9,1.7,2.6,2.1,5l1.5-5.2L1740.3,694.5z M1726.8,702.6c0-2.3-0.4-3.9-1.1-5c-0.5-0.7-1.2-1.1-2.1-1.1s-1.8,0.4-2.7,1.3
			c-1.9,1.8-3.9,5.3-6.1,10.7c-2.2,5.4-3.3,10-3.3,13.9c0,1.5,0.2,2.6,0.7,3.2c0.5,0.7,1,1,1.6,1c1.3,0,2.6-0.7,3.9-2.2
			c1.9-2.1,3.5-4.7,5-7.7C1725.4,711.4,1726.8,706.7,1726.8,702.6z"/>
		<path class="st5" d="M1764.3,693.9l-8.7,30.2c-0.5,1.7-0.7,2.9-0.7,3.4c0,0.3,0.1,0.6,0.4,0.9s0.5,0.4,0.8,0.4
			c0.5,0,1-0.2,1.4-0.6c1.3-1,2.8-2.9,4.6-5.7l1.4,0.8c-4.3,7.4-8.8,11.2-13.6,11.2c-1.8,0-3.3-0.5-4.4-1.5s-1.6-2.3-1.6-3.9
			c0-1,0.2-2.4,0.7-4l5.9-20.3c0.6-2,0.8-3.4,0.8-4.4c0-0.6-0.3-1.2-0.8-1.7c-0.5-0.5-1.3-0.7-2.2-0.7c-0.4,0-0.9,0-1.5,0l0.6-1.7
			l14.4-2.3H1764.3z M1761.7,674.4c1.8,0,3.2,0.6,4.4,1.8c1.2,1.2,1.8,2.7,1.8,4.4s-0.6,3.2-1.8,4.4c-1.2,1.2-2.7,1.8-4.4,1.8
			c-1.7,0-3.2-0.6-4.4-1.8c-1.2-1.2-1.8-2.7-1.8-4.4s0.6-3.2,1.8-4.4C1758.5,675,1760,674.4,1761.7,674.4z"/>
		<path class="st5" d="M1793.8,674.4l-14,47.8c-0.8,2.8-1.2,4.6-1.2,5.3c0,0.4,0.1,0.7,0.4,0.9c0.2,0.3,0.5,0.4,0.8,0.4
			c0.5,0,1-0.2,1.4-0.6c1.4-1.1,2.9-3,4.5-5.6l1.7,0.8c-2.7,4.3-5.3,7.4-7.9,9.2c-1.8,1.2-3.7,1.9-5.7,1.9c-1.9,0-3.4-0.5-4.5-1.5
			s-1.7-2.2-1.7-3.6c0-1,0.3-2.7,1-5l11.5-39.1c0.6-2.1,0.9-3.6,0.9-4.3c0-0.7-0.3-1.2-0.9-1.6c-0.8-0.6-2-0.8-3.6-0.7l0.5-1.6
			l14.3-2.5H1793.8z"/>
		<path class="st5" d="M1812.6,693.9l-8.7,30.2c-0.5,1.7-0.7,2.9-0.7,3.4c0,0.3,0.1,0.6,0.4,0.9s0.5,0.4,0.8,0.4
			c0.5,0,1-0.2,1.4-0.6c1.3-1,2.8-2.9,4.6-5.7l1.4,0.8c-4.3,7.4-8.8,11.2-13.6,11.2c-1.8,0-3.3-0.5-4.4-1.5s-1.6-2.3-1.6-3.9
			c0-1,0.2-2.4,0.7-4l5.9-20.3c0.6-2,0.8-3.4,0.8-4.4c0-0.6-0.3-1.2-0.8-1.7c-0.5-0.5-1.3-0.7-2.2-0.7c-0.4,0-0.9,0-1.5,0l0.6-1.7
			l14.4-2.3H1812.6z M1810,674.4c1.8,0,3.2,0.6,4.4,1.8c1.2,1.2,1.8,2.7,1.8,4.4s-0.6,3.2-1.8,4.4c-1.2,1.2-2.7,1.8-4.4,1.8
			c-1.7,0-3.2-0.6-4.4-1.8c-1.2-1.2-1.8-2.7-1.8-4.4s0.6-3.2,1.8-4.4C1806.8,675,1808.3,674.4,1810,674.4z"/>
		<path class="st5" d="M1837.8,693.9l-5.3,18.2c3.5-5.3,6.2-9,7.9-10.9c2.6-2.8,4.8-4.8,6.7-5.8s3.6-1.5,5.3-1.5
			c1.5,0,2.7,0.5,3.8,1.6c1,1.1,1.6,2.5,1.6,4.3c0,1.6-0.3,3.5-1,5.8l-5.4,18.1c-0.5,1.6-0.7,2.6-0.7,3.1c0,0.3,0.1,0.5,0.3,0.8
			s0.4,0.3,0.7,0.3c0.3,0,0.6-0.1,0.9-0.3c1-0.8,2-2,3-3.5c0.3-0.4,0.7-1,1.2-1.8l1.6,1c-4.2,7-8.5,10.5-13.1,10.5
			c-1.8,0-3.1-0.5-4.1-1.4s-1.5-2-1.5-3.4c0-1.2,0.3-3,1-5.3l5.3-18.1c0.4-1.2,0.6-2.1,0.6-2.6c0-0.3-0.1-0.6-0.4-0.8
			c-0.3-0.2-0.6-0.4-0.9-0.4c-1.1,0-2.4,0.7-3.9,2.2c-3.9,3.7-7.7,9.3-11.3,16.7l-3.5,12.6h-10.8l7.9-27.2c0.8-2.7,1.1-4.6,1.1-5.7
			c0-0.5-0.1-0.9-0.3-1.2s-0.6-0.6-1.1-0.8c-0.5-0.2-1.5-0.3-2.9-0.3l0.5-1.6l14.3-2.5H1837.8z"/>
		<path class="st5" d="M1896.5,696.5h11.3l-1.4,4.7h-5.9c0.9,1.7,1.4,3.3,1.4,4.8c0,2.6-0.7,5-2.1,7.1c-1.4,2.2-3.5,3.9-6.2,5.2
			c-2.7,1.3-5.8,2-9.1,2c-0.9,0-1.8-0.1-2.9-0.2c-1.1-0.1-2.2-0.3-3.5-0.5c-1.9,1-3,1.7-3.5,2.3c-0.3,0.4-0.5,0.8-0.5,1.2
			c0,0.5,0.2,0.9,0.6,1.3c0.7,0.7,1.8,1.1,3.3,1.4c5.8,1.2,9.6,2.2,11.4,3c2.5,1,4.4,2.4,5.7,4c1.3,1.6,1.9,3.6,1.9,5.9
			c0,3.5-1.6,6.6-4.9,9.3c-3.3,2.6-8.3,4-15.1,4c-6.9,0-11.9-1.1-15.2-3.4c-2.3-1.6-3.5-3.6-3.5-5.9c0-1.7,0.8-3.3,2.3-4.8
			c1.5-1.5,4.8-2.8,9.9-3.9c-1.7-1-2.9-1.8-3.5-2.6c-0.8-1.1-1.2-2.2-1.2-3.4c0-1.9,0.8-3.6,2.3-5c1.5-1.4,4.1-2.9,7.6-4.3
			c-2.8-1.1-4.8-2.5-6-4.3c-1.2-1.7-1.8-3.8-1.8-6.1c0-2.5,0.7-4.8,2.2-7c1.5-2.2,3.7-4,6.6-5.4s6.2-2.1,10-2.1
			c2.4,0,4.5,0.3,6.4,0.8C1894.1,695,1895.3,695.6,1896.5,696.5z M1873,735c-2.7,1-4.5,2.2-5.5,3.4c-1,1.2-1.5,2.5-1.5,3.9
			c0,1.8,1,3.5,2.9,5c1.9,1.5,5,2.2,9.3,2.2c3.5,0,6.1-0.6,7.7-1.9c1.6-1.3,2.4-2.8,2.4-4.5c0-1.5-0.7-2.8-2.2-3.7s-4.3-2-8.4-3
			C1875.8,735.9,1874.2,735.4,1873,735z M1887.7,696c-1.4,0-2.6,0.5-3.5,1.4c-1.5,1.4-2.9,3.7-4,7s-1.7,6.3-1.7,9.3
			c0,1.4,0.4,2.5,1.2,3.3c0.8,0.8,1.8,1.2,3,1.2c1.2,0,2.2-0.4,3-1.2c1.6-1.6,3-4,4.2-7.4c1.2-3.4,1.8-6.5,1.8-9.3
			c0-1.2-0.4-2.2-1.1-3S1888.8,696,1887.7,696z"/>
	</g>
</g>
</svg>
