<?xml version="1.0" encoding="utf-8"?>
<!-- Generator: Adobe Illustrator 19.2.0, SVG Export Plug-In . SVG Version: 6.00 Build 0)  -->
<svg version="1.1" id="Layer_1" xmlns="http://www.w3.org/2000/svg" xmlns:xlink="http://www.w3.org/1999/xlink" x="0px" y="0px"
	 viewBox="0 0 612 792" style="enable-background:new 0 0 612 792;" xml:space="preserve">
<style type="text/css">
	.st0{fill:#223B73;stroke:#FFFFFF;stroke-width:2;stroke-miterlimit:10;}
	.st1{fill:#FFFFFF;stroke:#FFFFFF;stroke-width:2;stroke-miterlimit:10;}
	.st2{fill:#5F5F61;stroke:#FFFFFF;stroke-width:2;stroke-miterlimit:10;}
</style>
<path class="st0" d="M305.4,253.2c0,0-52.7,82.6-250.3,36.3c0,0-75.3,301.4,250.3,488.8c0,0,313.1-137.1,253.7-488.8
	C559.1,289.5,403.2,339.9,305.4,253.2z"/>
<path class="st1" d="M305.4,274.4c0,0-86,76.6-228.1,40.3c0,0-60.1,256,228.1,443.5c0,0,283.9-163.3,230.5-443.5
	C535.9,314.7,438.5,356,305.4,274.4z"/>
<path class="st2" d="M169,355.6v160.1c0,1.5,1.3,2.8,2.8,2.8h86.4c0.7,0,1.3-0.6,1.3-1.3v-28c0-0.8-0.6-1.4-1.4-1.4h-52.5
	c-0.9,0-1.7-0.8-1.7-1.7V355.6c0-0.7-0.6-1.3-1.3-1.3h-32.4C169.6,354.3,169,354.9,169,355.6z"/>
<path class="st2" d="M320.1,519H286c-0.6,0-1.1-0.5-1.1-1.1V355.8c0-0.6,0.5-1.1,1.1-1.1h34.1c0.6,0,1.1,0.5,1.1,1.1v162.1
	C321.2,518.5,320.7,519,320.1,519z"/>
<path class="st0" d="M282.2,137.6c0.9-1.1,1.2-3.9,1.7-5.2c1.8-4.5,4.3-8.8,7.3-12.6c10.3-13.8,26-22.2,42.5-26.2
	c21-5.1,42.1-1.9,63.4-3.1c9.1-0.5,18.3-1.4,27.3-3.4c5.9-1.3,16.5-3.4,20.5-8.6c-13.2,17.6-42.1,23.8-62.2,26.2
	c-19.5,2.3-39.3,1.3-58.3,6.9C308.4,116.2,292.7,124.3,282.2,137.6z"/>
<path class="st0" d="M414.3,116.5c1.9-0.1,4.2-1.3,6-1.9c5.6-1.6,11.3-3,17-4.3c22.9-4.9,54.9-2.2,71.1-22.4
	c-1.4,1.8-2.1,4.6-3.5,6.6c-3.9,5.5-9.4,9.8-15.3,12.9c-11.1,5.8-24.1,7.7-36.5,8C440.1,115.8,427.3,115.7,414.3,116.5z"/>
<path class="st0" d="M373.6,57c2.1-5.9,1.6-12.4,4.5-18.4c10.1-20.7,35.9-11.4,51.9-2.1c2.3,1.3,5.2,1.2,7.3-0.4
	c10.9-8.3,44.9-30.5,59.9-0.6c0,0-24.5-25.2-63.2,16.1C434.1,51.6,387.8,17,373.6,57z"/>
<path class="st0" d="M240.6,215.6h-97.7c-1.5,0-2.7,1.2-2.7,2.7v66.3c0,1.4,1.1,2.6,2.5,2.7c11.2,0.8,57.7,3.3,93.2-7.6
	c0,0,48.4-11.4,69.5-49.4c0,0,23.2,30.6,76.3,47.4c0,0,42.5,16.6,90.5,12.3c1.4-0.1,2.5-1.3,2.5-2.8V218c0-1.5-1.2-2.4-2.7-2.4
	H310.1v-38.3c0,0-27.2-26.9-69.2,0L240.6,215.6z"/>
<path class="st1" d="M302.6,215.6h-52.2v-34.9c0,0,26-18.4,52.2,0V215.6z"/>
<path class="st2" d="M407.9,429.7v23.7c0,0.7,0.6,1.3,1.3,1.3h25c0.7,0,1.3,0.6,1.3,1.3c0,5.8,0,29.8,0,34.8c0,0.5-0.3,1-0.9,1.1
	c-2,0.5-7.3,1.8-12.7,2c-3.9,0.2-23.8,1.6-33.3-13.2c-6.7-10.5-7.6-23.7-7.6-35.8c-0.1-13.3,0.6-26.7,5-39.4
	c5.7-16.2,21.8-26.7,38.9-23.8c8.7,1.5,16.5,5.9,23.3,11.4c0.3,0.3,0.8,0.3,1.1-0.1c2.6-2.8,14.3-15.1,17-17.9
	c0.4-0.4,0.3-1-0.1-1.3c-2.2-1.7-9-6.1-9.6-6.5c-19-11.5-43-16.6-64.1-7.6c-16.7,7.1-31.4,21.4-38.2,38.3
	c-5.4,13.5-7.2,28.4-7.2,42.9c0,11.6,0.9,22.9,4.7,34c9.2,26.4,34.1,42.1,61.3,43.3c19.3,0.8,36.2-4.5,46.1-9.1
	c0.8-0.4,6-3.2,7.6-4.1c0.2-0.3,0.3-0.5,0.4-0.7v-74.3c0-0.7-0.6-1.3-1.3-1.3h-56.7C408.4,428.5,407.9,429,407.9,429.7z"/>
<path class="st0" d="M306.8,742.4c-0.1,1.1-0.9,1.2-0.9,0c-0.5-8.7-1-17.4-1.5-26.1c-0.6-11.5-1.2-23.1-1.7-34.6
	c-0.6-12.6-1.1-25.2-1.4-37.9c-0.4-11.9-0.6-23.9-0.6-35.8c0-9.5,0.1-19,0.8-28.5c0.4-5,0.3-11.4,2.7-16c1.4-2.8,3.3-2.2,4.3-0.3
	c0.8,1.5,1.2,3.2,1.6,4.8c0.7,3.2,1.1,6.5,1.5,9.7c0.5,5.4,0.8,10.8,1,16.2c0.3,8.1,0.3,16.2,0.3,24.3c-0.1,11.4-0.4,22.7-0.8,34.1
	c-0.6,15.2-1.3,30.3-2.2,45.5C308.8,712.8,307.8,727.6,306.8,742.4z"/>
<line class="st0" x1="477" y1="652.5" x2="2477.9" y2="652.5"/>
</svg>
